<svg xmlns="http://www.w3.org/2000/svg" xmlns:xlink="http://www.w3.org/1999/xlink" width="48" zoomAndPan="magnify" viewBox="0 0 36 36.000001" height="48" preserveAspectRatio="xMidYMid meet" version="1.2"><defs><clipPath id="0ee7d071da"><path d="M 1.601562 0 L 34.441406 0 L 34.441406 35 L 1.601562 35 Z M 1.601562 0 "/></clipPath></defs><g id="78a22de660"><g clip-rule="nonzero" clip-path="url(#0ee7d071da)"><path style=" stroke:none;fill-rule:nonzero;fill:#ffffff;fill-opacity:1;" d="M 25.507812 24.695312 C 26.109375 26.085938 25.945312 27.539062 25.953125 28.96875 C 25.960938 30.398438 25.960938 31.828125 25.953125 33.253906 C 25.945312 34.316406 25.089844 35.027344 24.101562 34.808594 C 23.414062 34.660156 22.929688 34.058594 22.929688 33.320312 C 22.925781 31.300781 22.917969 29.28125 22.9375 27.265625 C 22.949219 26.257812 22.652344 25.386719 21.972656 24.644531 C 21.535156 24.167969 21.375 23.625 21.609375 23.015625 C 21.839844 22.421875 22.300781 22.148438 22.925781 22.03125 C 24.070312 21.820312 25.230469 21.636719 26.335938 21.28125 C 28.886719 20.464844 30.378906 18.640625 30.925781 16.046875 C 31.257812 14.457031 31.414062 12.847656 31.003906 11.242188 C 30.742188 10.203125 30.25 9.28125 29.519531 8.5 C 28.988281 7.929688 28.859375 7.324219 29.125 6.585938 C 29.515625 5.484375 29.558594 4.351562 29.269531 3.140625 C 28.871094 3.277344 28.476562 3.363281 28.128906 3.539062 C 27.246094 3.988281 26.363281 4.441406 25.523438 4.957031 C 24.957031 5.304688 24.421875 5.40625 23.777344 5.242188 C 20.691406 4.441406 17.597656 4.441406 14.503906 5.246094 C 13.878906 5.40625 13.335938 5.328125 12.796875 4.960938 C 11.738281 4.246094 10.628906 3.625 9.394531 3.261719 C 9.285156 3.226562 9.171875 3.207031 9.03125 3.171875 C 8.800781 4.015625 8.785156 4.84375 8.941406 5.675781 C 9.007812 6.042969 9.121094 6.40625 9.234375 6.765625 C 9.417969 7.34375 9.339844 7.871094 8.929688 8.316406 C 7.582031 9.769531 6.984375 11.488281 7.0625 13.460938 C 7.117188 14.824219 7.285156 16.164062 7.792969 17.441406 C 8.617188 19.511719 10.1875 20.769531 12.265625 21.402344 C 13.242188 21.699219 14.257812 21.878906 15.265625 22.050781 C 16.289062 22.226562 16.894531 22.855469 16.757812 23.785156 C 16.714844 24.078125 16.5625 24.402344 16.363281 24.625 C 15.644531 25.441406 15.339844 26.367188 15.355469 27.449219 C 15.386719 29.394531 15.371094 31.34375 15.363281 33.292969 C 15.359375 34.1875 14.71875 34.84375 13.875 34.855469 C 13.023438 34.867188 12.367188 34.191406 12.359375 33.28125 C 12.351562 32.433594 12.355469 31.585938 12.355469 30.785156 C 11.585938 30.785156 10.84375 30.824219 10.109375 30.773438 C 8.355469 30.660156 6.894531 29.894531 5.703125 28.625 C 5.160156 28.050781 4.675781 27.421875 4.175781 26.8125 C 3.757812 26.308594 3.324219 25.863281 2.667969 25.636719 C 1.9375 25.382812 1.605469 24.515625 1.855469 23.785156 C 2.113281 23.03125 2.894531 22.617188 3.667969 22.816406 C 4.671875 23.074219 5.449219 23.667969 6.109375 24.429688 C 6.589844 24.984375 7.050781 25.554688 7.5 26.128906 C 8.765625 27.738281 10.417969 28.074219 12.3125 27.621094 C 12.347656 27.117188 12.351562 26.621094 12.425781 26.132812 C 12.496094 25.660156 12.640625 25.195312 12.753906 24.714844 C 12.214844 24.550781 11.648438 24.398438 11.09375 24.207031 C 7.054688 22.800781 4.863281 19.886719 4.238281 15.726562 C 3.992188 14.085938 3.910156 12.441406 4.289062 10.800781 C 4.589844 9.496094 5.128906 8.300781 5.925781 7.226562 C 6.0625 7.039062 6.109375 6.875 6.058594 6.644531 C 5.632812 4.773438 5.789062 2.941406 6.503906 1.160156 C 6.800781 0.421875 7.289062 0.125 8.082031 0.0859375 C 9.945312 0 11.574219 0.714844 13.109375 1.636719 C 13.84375 2.074219 14.496094 2.15625 15.3125 1.992188 C 18.113281 1.4375 20.921875 1.515625 23.710938 2.117188 C 24.035156 2.1875 24.28125 2.15625 24.566406 1.980469 C 25.949219 1.132812 27.390625 0.402344 29.015625 0.144531 C 29.511719 0.0664062 30.03125 0.0664062 30.53125 0.113281 C 31.128906 0.167969 31.542969 0.527344 31.769531 1.089844 C 32.503906 2.902344 32.671875 4.761719 32.25 6.675781 C 32.21875 6.824219 32.253906 7.035156 32.34375 7.15625 C 33.820312 9.179688 34.394531 11.449219 34.242188 13.929688 C 34.140625 15.574219 33.890625 17.1875 33.242188 18.71875 C 32.023438 21.613281 29.8125 23.382812 26.867188 24.3125 C 26.433594 24.449219 25.988281 24.558594 25.507812 24.695312 Z M 25.507812 24.695312 "/></g></g></svg>