<svg xmlns="http://www.w3.org/2000/svg" xmlns:xlink="http://www.w3.org/1999/xlink" width="48" zoomAndPan="magnify" viewBox="0 0 36 36.000001" height="48" preserveAspectRatio="xMidYMid meet" version="1.2"><defs><clipPath id="7ab6edbd92"><path d="M 0.488281 0 L 35.511719 0 L 35.511719 35.027344 L 0.488281 35.027344 Z M 0.488281 0 "/></clipPath></defs><g id="0c742cb1eb"><g clip-rule="nonzero" clip-path="url(#7ab6edbd92)"><path style=" stroke:none;fill-rule:nonzero;fill:#ffffff;fill-opacity:1;" d="M 30.328125 29.847656 L 25.140625 29.847656 L 25.140625 21.722656 C 25.140625 19.78125 25.101562 17.289062 22.4375 17.289062 C 19.734375 17.289062 19.320312 19.398438 19.320312 21.578125 L 19.320312 29.847656 L 14.132812 29.847656 L 14.132812 13.136719 L 19.117188 13.136719 L 19.117188 15.414062 L 19.183594 15.414062 C 19.878906 14.101562 21.574219 12.714844 24.101562 12.714844 C 29.359375 12.714844 30.328125 16.171875 30.328125 20.675781 Z M 8.277344 10.847656 C 7.875 10.847656 7.492188 10.773438 7.121094 10.621094 C 6.753906 10.46875 6.425781 10.25 6.144531 9.964844 C 5.863281 9.683594 5.644531 9.359375 5.492188 8.988281 C 5.339844 8.617188 5.265625 8.234375 5.265625 7.835938 C 5.265625 7.433594 5.339844 7.050781 5.496094 6.683594 C 5.648438 6.3125 5.867188 5.988281 6.148438 5.703125 C 6.429688 5.421875 6.757812 5.203125 7.125 5.050781 C 7.496094 4.898438 7.878906 4.824219 8.277344 4.824219 C 8.679688 4.824219 9.0625 4.898438 9.429688 5.054688 C 9.800781 5.207031 10.125 5.425781 10.40625 5.707031 C 10.691406 5.988281 10.90625 6.316406 11.0625 6.683594 C 11.214844 7.054688 11.289062 7.4375 11.289062 7.835938 C 11.289062 8.238281 11.210938 8.621094 11.058594 8.988281 C 10.90625 9.359375 10.6875 9.683594 10.40625 9.96875 C 10.125 10.25 9.796875 10.464844 9.429688 10.621094 C 9.058594 10.773438 8.675781 10.847656 8.277344 10.847656 M 10.875 29.847656 L 5.675781 29.847656 L 5.675781 13.136719 L 10.875 13.136719 Z M 32.921875 0 L 3.070312 0 C 1.640625 0 0.488281 1.128906 0.488281 2.523438 L 0.488281 32.503906 C 0.488281 33.898438 1.640625 35.027344 3.070312 35.027344 L 32.917969 35.027344 C 34.347656 35.027344 35.511719 33.898438 35.511719 32.503906 L 35.511719 2.523438 C 35.511719 1.128906 34.347656 0 32.917969 0 Z M 32.921875 0 "/></g></g></svg>