<svg xmlns="http://www.w3.org/2000/svg" xmlns:xlink="http://www.w3.org/1999/xlink" width="164" zoomAndPan="magnify" viewBox="0 0 123 137.999998" height="184" preserveAspectRatio="xMidYMid meet" version="1.2"><defs><clipPath id="439a8d5046"><path d="M 1.101562 1.550781 L 121.898438 1.550781 L 121.898438 136.503906 L 1.101562 136.503906 Z M 1.101562 1.550781 "/></clipPath><clipPath id="034144235a"><path d="M 71.871094 4.753906 L 111.527344 27.824219 C 117.949219 31.5625 121.898438 38.429688 121.898438 45.859375 L 121.898438 92.140625 C 121.898438 99.570312 117.949219 106.4375 111.527344 110.175781 L 71.871094 133.246094 C 65.460938 136.976562 57.539062 136.976562 51.128906 133.246094 L 11.472656 110.175781 C 5.050781 106.4375 1.101562 99.570312 1.101562 92.140625 L 1.101562 45.859375 C 1.101562 38.429688 5.050781 31.5625 11.472656 27.824219 L 51.128906 4.753906 C 57.539062 1.023438 65.460938 1.023438 71.871094 4.753906 Z M 71.871094 4.753906 "/></clipPath><clipPath id="378491c36e"><path d="M 1.101562 1 L 121.847656 1 L 121.847656 136 L 1.101562 136 Z M 1.101562 1 "/></clipPath><clipPath id="94e864d115"><path d="M 71.84375 4.753906 L 111.480469 27.816406 C 117.902344 31.550781 121.847656 38.417969 121.847656 45.84375 L 121.847656 92.105469 C 121.847656 99.53125 117.902344 106.398438 111.480469 110.132812 L 71.84375 133.195312 C 65.433594 136.925781 57.515625 136.925781 51.109375 133.195312 L 11.46875 110.132812 C 5.050781 106.398438 1.101562 99.53125 1.101562 92.105469 L 1.101562 45.84375 C 1.101562 38.417969 5.050781 31.550781 11.46875 27.816406 L 51.109375 4.753906 C 57.515625 1.023438 65.433594 1.023438 71.84375 4.753906 Z M 71.84375 4.753906 "/></clipPath><clipPath id="95d8fbec88"><path d="M 16.132812 23.632812 L 106.722656 23.632812 L 106.722656 114.222656 L 16.132812 114.222656 Z M 16.132812 23.632812 "/></clipPath></defs><g id="8f4a45cac1"><g clip-rule="nonzero" clip-path="url(#439a8d5046)"><g clip-rule="nonzero" clip-path="url(#034144235a)"><path style=" stroke:none;fill-rule:nonzero;fill:#ffffff;fill-opacity:1;" d="M 1.101562 -1.28125 L 121.898438 -1.28125 L 121.898438 139.332031 L 1.101562 139.332031 Z M 1.101562 -1.28125 "/></g></g><g clip-rule="nonzero" clip-path="url(#378491c36e)"><g clip-rule="nonzero" clip-path="url(#94e864d115)"><path style="fill:none;stroke-width:55.884426;stroke-linecap:butt;stroke-linejoin:miter;stroke:#f03c2e;stroke-opacity:1;stroke-miterlimit:4;" d="M 175.768998 14.988654 L 274.252049 72.290707 C 290.208109 81.569291 300.010797 98.631793 300.010797 117.0822 L 300.010797 232.026003 C 300.010797 250.47641 290.208109 267.538912 274.252049 276.817496 L 175.768998 334.119549 C 159.842056 343.388428 140.168739 343.388428 124.251502 334.119549 L 25.758745 276.817496 C 9.812392 267.538912 -0.00000263441 250.47641 -0.00000263441 232.026003 L -0.00000263441 117.0822 C -0.00000263441 98.631793 9.812392 81.569291 25.758745 72.290707 L 124.251502 14.988654 C 140.168739 5.719775 159.842056 5.719775 175.768998 14.988654 Z M 175.768998 14.988654 " transform="matrix(0.402472,0,0,0.402472,1.101564,-1.278615)"/></g></g><g clip-rule="nonzero" clip-path="url(#95d8fbec88)"><path style=" stroke:none;fill-rule:nonzero;fill:#f03c2e;fill-opacity:1;" d="M 105.011719 64.894531 L 65.460938 25.34375 C 65.191406 25.074219 64.898438 24.832031 64.578125 24.617188 C 64.257812 24.40625 63.921875 24.226562 63.570312 24.078125 C 63.214844 23.933594 62.851562 23.820312 62.476562 23.746094 C 62.101562 23.671875 61.71875 23.632812 61.335938 23.632812 C 60.953125 23.632812 60.574219 23.671875 60.199219 23.746094 C 59.824219 23.820312 59.457031 23.933594 59.105469 24.078125 C 58.75 24.226562 58.414062 24.40625 58.097656 24.617188 C 57.777344 24.832031 57.484375 25.074219 57.210938 25.34375 L 49.003906 33.554688 L 59.421875 43.972656 C 61.84375 43.121094 64.617188 43.703125 66.550781 45.632812 C 67.007812 46.09375 67.394531 46.609375 67.710938 47.175781 C 68.023438 47.746094 68.253906 48.347656 68.402344 48.980469 C 68.546875 49.617188 68.601562 50.257812 68.566406 50.90625 C 68.53125 51.554688 68.40625 52.1875 68.195312 52.804688 L 78.234375 62.84375 C 80.664062 62.007812 83.464844 62.546875 85.40625 64.492188 C 85.726562 64.8125 86.015625 65.164062 86.269531 65.542969 C 86.523438 65.921875 86.738281 66.324219 86.910156 66.746094 C 87.085938 67.167969 87.21875 67.601562 87.308594 68.046875 C 87.394531 68.496094 87.441406 68.945312 87.441406 69.402344 C 87.441406 69.859375 87.398438 70.308594 87.308594 70.757812 C 87.21875 71.203125 87.085938 71.640625 86.914062 72.058594 C 86.738281 72.480469 86.523438 72.882812 86.269531 73.261719 C 86.015625 73.640625 85.730469 73.992188 85.40625 74.3125 C 85.085938 74.636719 84.734375 74.921875 84.355469 75.175781 C 83.976562 75.429688 83.574219 75.644531 83.152344 75.820312 C 82.730469 75.992188 82.296875 76.125 81.851562 76.214844 C 81.402344 76.300781 80.953125 76.347656 80.496094 76.347656 C 80.039062 76.347656 79.585938 76.300781 79.140625 76.210938 C 78.691406 76.121094 78.257812 75.992188 77.835938 75.816406 C 77.417969 75.640625 77.015625 75.425781 76.636719 75.175781 C 76.257812 74.921875 75.90625 74.632812 75.585938 74.308594 C 73.546875 72.269531 73.042969 69.269531 74.074219 66.757812 L 64.710938 57.394531 L 64.710938 82.039062 C 65.394531 82.375 66.007812 82.8125 66.550781 83.351562 C 66.871094 83.671875 67.160156 84.023438 67.414062 84.402344 C 67.664062 84.78125 67.878906 85.183594 68.054688 85.605469 C 68.226562 86.023438 68.359375 86.457031 68.449219 86.90625 C 68.539062 87.351562 68.582031 87.804688 68.582031 88.261719 C 68.582031 88.714844 68.539062 89.167969 68.449219 89.613281 C 68.359375 90.0625 68.226562 90.496094 68.054688 90.917969 C 67.878906 91.339844 67.664062 91.738281 67.414062 92.117188 C 67.160156 92.496094 66.871094 92.847656 66.550781 93.167969 C 66.226562 93.492188 65.875 93.777344 65.496094 94.03125 C 65.117188 94.285156 64.71875 94.5 64.296875 94.671875 C 63.875 94.847656 63.441406 94.980469 62.996094 95.070312 C 62.546875 95.15625 62.097656 95.203125 61.640625 95.203125 C 61.183594 95.203125 60.734375 95.15625 60.285156 95.070312 C 59.839844 94.980469 59.40625 94.847656 58.984375 94.671875 C 58.5625 94.5 58.164062 94.285156 57.785156 94.03125 C 57.40625 93.777344 57.054688 93.492188 56.730469 93.167969 C 56.410156 92.847656 56.121094 92.496094 55.867188 92.117188 C 55.613281 91.738281 55.398438 91.339844 55.226562 90.917969 C 55.050781 90.496094 54.917969 90.0625 54.828125 89.613281 C 54.738281 89.167969 54.695312 88.714844 54.695312 88.261719 C 54.695312 87.804688 54.738281 87.351562 54.828125 86.90625 C 54.917969 86.457031 55.050781 86.023438 55.226562 85.601562 C 55.398438 85.183594 55.613281 84.78125 55.867188 84.402344 C 56.121094 84.023438 56.410156 83.671875 56.730469 83.351562 C 57.402344 82.683594 58.148438 82.175781 59.003906 81.835938 L 59.003906 56.964844 C 58.179688 56.625 57.402344 56.125 56.730469 55.449219 C 56.246094 54.964844 55.839844 54.417969 55.515625 53.808594 C 55.191406 53.199219 54.960938 52.558594 54.828125 51.882812 C 54.695312 51.207031 54.664062 50.527344 54.734375 49.839844 C 54.800781 49.15625 54.96875 48.496094 55.238281 47.859375 L 44.960938 37.589844 L 17.839844 64.683594 C 17.570312 64.953125 17.328125 65.246094 17.113281 65.566406 C 16.902344 65.882812 16.722656 66.21875 16.574219 66.574219 C 16.429688 66.929688 16.316406 67.292969 16.242188 67.667969 C 16.167969 68.046875 16.128906 68.425781 16.128906 68.808594 C 16.128906 69.191406 16.167969 69.570312 16.242188 69.945312 C 16.316406 70.320312 16.429688 70.6875 16.574219 71.039062 C 16.722656 71.394531 16.902344 71.730469 17.113281 72.050781 C 17.328125 72.367188 17.570312 72.664062 17.839844 72.933594 L 57.394531 112.480469 C 57.664062 112.753906 57.960938 112.996094 58.277344 113.207031 C 58.597656 113.417969 58.933594 113.601562 59.285156 113.746094 C 59.640625 113.894531 60.003906 114.003906 60.378906 114.078125 C 60.757812 114.152344 61.136719 114.191406 61.519531 114.191406 C 61.902344 114.191406 62.28125 114.152344 62.65625 114.078125 C 63.03125 114.003906 63.398438 113.894531 63.75 113.746094 C 64.105469 113.601562 64.441406 113.417969 64.757812 113.207031 C 65.078125 112.996094 65.371094 112.753906 65.644531 112.480469 L 105.011719 73.175781 C 105.285156 72.902344 105.527344 72.609375 105.738281 72.289062 C 105.953125 71.972656 106.132812 71.636719 106.277344 71.28125 C 106.425781 70.925781 106.535156 70.5625 106.609375 70.1875 C 106.6875 69.8125 106.722656 69.429688 106.722656 69.046875 C 106.722656 68.664062 106.6875 68.285156 106.609375 67.910156 C 106.535156 67.535156 106.425781 67.167969 106.277344 66.816406 C 106.132812 66.460938 105.953125 66.125 105.738281 65.804688 C 105.527344 65.488281 105.285156 65.191406 105.011719 64.921875 "/></g></g></svg>