<svg xmlns="http://www.w3.org/2000/svg" xmlns:xlink="http://www.w3.org/1999/xlink" width="164" zoomAndPan="magnify" viewBox="0 0 123 137.999998" height="184" preserveAspectRatio="xMidYMid meet" version="1.2"><defs><clipPath id="7cda0dde3b"><path d="M 1.101562 1.550781 L 121.898438 1.550781 L 121.898438 136.503906 L 1.101562 136.503906 Z M 1.101562 1.550781 "/></clipPath><clipPath id="6855861448"><path d="M 71.871094 4.753906 L 111.527344 27.824219 C 117.949219 31.5625 121.898438 38.429688 121.898438 45.859375 L 121.898438 92.140625 C 121.898438 99.570312 117.949219 106.4375 111.527344 110.175781 L 71.871094 133.246094 C 65.460938 136.976562 57.539062 136.976562 51.128906 133.246094 L 11.472656 110.175781 C 5.050781 106.4375 1.101562 99.570312 1.101562 92.140625 L 1.101562 45.859375 C 1.101562 38.429688 5.050781 31.5625 11.472656 27.824219 L 51.128906 4.753906 C 57.539062 1.023438 65.460938 1.023438 71.871094 4.753906 Z M 71.871094 4.753906 "/></clipPath><clipPath id="4c0c45cfe6"><path d="M 1.101562 1 L 121.804688 1 L 121.804688 136 L 1.101562 136 Z M 1.101562 1 "/></clipPath><clipPath id="9838eaaba7"><path d="M 71.816406 4.75 L 111.4375 27.800781 C 117.855469 31.535156 121.804688 38.398438 121.804688 45.820312 L 121.804688 92.066406 C 121.804688 99.492188 117.855469 106.355469 111.4375 110.085938 L 71.816406 133.140625 C 65.410156 136.867188 57.496094 136.867188 51.089844 133.140625 L 11.464844 110.085938 C 5.050781 106.355469 1.101562 99.492188 1.101562 92.066406 L 1.101562 45.820312 C 1.101562 38.398438 5.050781 31.535156 11.464844 27.800781 L 51.089844 4.75 C 57.496094 1.019531 65.410156 1.019531 71.816406 4.75 Z M 71.816406 4.75 "/></clipPath><clipPath id="472d049664"><path d="M 50 21.421875 L 81 21.421875 L 81 72 L 50 72 Z M 50 21.421875 "/></clipPath></defs><g id="ae7b875002"><g clip-rule="nonzero" clip-path="url(#7cda0dde3b)"><g clip-rule="nonzero" clip-path="url(#6855861448)"><path style=" stroke:none;fill-rule:nonzero;fill:#ffffff;fill-opacity:1;" d="M 1.101562 -1.28125 L 121.898438 -1.28125 L 121.898438 139.332031 L 1.101562 139.332031 Z M 1.101562 -1.28125 "/></g></g><g clip-rule="nonzero" clip-path="url(#4c0c45cfe6)"><g clip-rule="nonzero" clip-path="url(#9838eaaba7)"><path style="fill:none;stroke-width:29.452852;stroke-linecap:butt;stroke-linejoin:miter;stroke:#f58219;stroke-opacity:1;stroke-miterlimit:4;" d="M 92.640078 7.901961 L 144.545747 38.099669 C 152.953616 42.991892 158.127295 51.983143 158.127295 61.706181 L 158.127295 122.29094 C 158.127295 132.019096 152.953616 141.010347 144.545747 145.897452 L 92.640078 176.100278 C 84.247561 180.982266 73.879733 180.982266 65.487216 176.100278 L 13.57643 145.897452 C 5.173678 141.010347 -0.00000138902 132.019096 -0.00000138902 122.29094 L -0.00000138902 61.706181 C -0.00000138902 51.983143 5.173678 42.991892 13.57643 38.099669 L 65.487216 7.901961 C 73.879733 3.014855 84.247561 3.014855 92.640078 7.901961 Z M 92.640078 7.901961 " transform="matrix(0.763329,0,0,0.763329,1.101564,-1.281795)"/></g></g><path style=" stroke:none;fill-rule:nonzero;fill:#4e7896;fill-opacity:1;" d="M 50.464844 87.539062 C 50.464844 87.539062 47.179688 89.539062 52.75 90.109375 C 59.457031 90.964844 63.03125 90.824219 70.453125 89.398438 C 71.949219 90.3125 73.519531 91.074219 75.167969 91.683594 C 58.464844 98.824219 37.324219 91.253906 50.460938 87.539062 Z M 48.328125 78.257812 C 48.328125 78.257812 44.757812 80.96875 50.328125 81.546875 C 57.609375 82.257812 63.320312 82.398438 73.175781 80.402344 C 74.148438 81.390625 75.289062 82.101562 76.601562 82.542969 C 56.46875 88.542969 33.90625 83.117188 48.328125 78.261719 Z M 87.738281 94.535156 C 87.738281 94.535156 90.164062 96.53125 85.023438 98.105469 C 75.457031 100.964844 44.902344 101.820312 36.332031 98.105469 C 33.335938 96.820312 39.046875 94.964844 40.875 94.679688 C 42.734375 94.25 43.734375 94.25 43.734375 94.25 C 40.449219 91.964844 21.890625 98.960938 34.3125 100.957031 C 68.441406 106.527344 96.570312 98.53125 87.714844 94.535156 Z M 52.011719 68.546875 C 52.011719 68.546875 36.445312 72.261719 46.441406 73.542969 C 50.722656 74.117188 59.148438 73.972656 67.003906 73.402344 C 73.425781 72.828125 79.855469 71.691406 79.855469 71.691406 C 79.855469 71.691406 77.570312 72.691406 76 73.691406 C 60.152344 77.832031 29.734375 75.976562 38.449219 71.691406 C 45.871094 68.121094 52.011719 68.550781 52.011719 68.550781 Z M 79.855469 84.109375 C 95.847656 75.824219 88.425781 67.835938 83.28125 68.832031 C 82 69.117188 81.425781 69.402344 81.425781 69.402344 C 81.425781 69.402344 81.851562 68.546875 82.851562 68.261719 C 92.992188 64.691406 100.988281 78.972656 79.566406 84.539062 C 79.566406 84.539062 79.707031 84.398438 79.851562 84.109375 Z M 53.585938 106.671875 C 69.007812 107.671875 92.570312 106.101562 93.136719 98.816406 C 93.136719 98.816406 91.996094 101.675781 80.429688 103.8125 C 67.292969 106.238281 51.015625 105.949219 41.449219 104.386719 C 41.449219 104.386719 43.449219 106.09375 53.585938 106.671875 Z M 53.585938 106.671875 "/><g clip-rule="nonzero" clip-path="url(#472d049664)"><path style=" stroke:none;fill-rule:nonzero;fill:#f58219;fill-opacity:1;" d="M 70.171875 21.421875 C 70.171875 21.421875 79.023438 30.417969 61.75 43.984375 C 47.898438 54.980469 58.609375 61.261719 61.75 68.402344 C 53.609375 61.121094 47.753906 54.695312 51.753906 48.699219 C 57.605469 39.84375 73.742188 35.585938 70.171875 21.421875 Z M 65.628906 62.40625 C 69.769531 67.117188 64.488281 71.402344 64.488281 71.402344 C 64.488281 71.402344 75.054688 65.976562 70.199219 59.265625 C 65.773438 52.839844 62.339844 49.695312 80.90625 38.988281 C 80.90625 38.988281 51.636719 46.269531 65.628906 62.40625 Z M 65.628906 62.40625 "/></g></g></svg>