<svg xmlns="http://www.w3.org/2000/svg" xmlns:xlink="http://www.w3.org/1999/xlink" width="164" zoomAndPan="magnify" viewBox="0 0 123 137.999998" height="184" preserveAspectRatio="xMidYMid meet" version="1.2"><defs><clipPath id="16cf1d9dd7"><path d="M 2.179688 1.390625 L 120.820312 1.390625 L 120.820312 136.71875 L 2.179688 136.71875 Z M 2.179688 1.390625 "/></clipPath><clipPath id="0764c1573a"><path d="M 66.6875 3.015625 L 115.636719 31.496094 C 118.847656 33.367188 120.820312 36.800781 120.820312 40.515625 L 120.820312 97.542969 C 120.820312 101.257812 118.847656 104.691406 115.636719 106.5625 L 66.6875 135.042969 C 63.480469 136.90625 59.519531 136.90625 56.3125 135.042969 L 7.363281 106.5625 C 4.152344 104.691406 2.179688 101.257812 2.179688 97.542969 L 2.179688 40.515625 C 2.179688 36.800781 4.152344 33.367188 7.363281 31.496094 L 56.3125 3.015625 C 59.519531 1.152344 63.480469 1.152344 66.6875 3.015625 Z M 66.6875 3.015625 "/></clipPath><clipPath id="213edb650d"><path d="M 2.179688 1 L 120.726562 1 L 120.726562 137 L 2.179688 137 Z M 2.179688 1 "/></clipPath><clipPath id="a71c54a0e6"><path d="M 66.636719 3.015625 L 115.546875 31.472656 C 118.753906 33.339844 120.726562 36.769531 120.726562 40.484375 L 120.726562 97.46875 C 120.726562 101.179688 118.753906 104.609375 115.546875 106.476562 L 66.636719 134.933594 C 63.433594 136.796875 59.472656 136.796875 56.269531 134.933594 L 7.359375 106.476562 C 4.152344 104.609375 2.179688 101.179688 2.179688 97.46875 L 2.179688 40.484375 C 2.179688 36.769531 4.152344 33.339844 7.359375 31.472656 L 56.269531 3.015625 C 59.472656 1.152344 63.433594 1.152344 66.636719 3.015625 Z M 66.636719 3.015625 "/></clipPath><clipPath id="261ddc410f"><path d="M 29.554688 28.167969 L 93 28.167969 L 93 109.953125 L 29.554688 109.953125 Z M 29.554688 28.167969 "/></clipPath></defs><g id="bc6dee2e9e"><g clip-rule="nonzero" clip-path="url(#16cf1d9dd7)"><g clip-rule="nonzero" clip-path="url(#0764c1573a)"><path style=" stroke:none;fill-rule:nonzero;fill:#ffffff;fill-opacity:1;" d="M 2.179688 0 L 120.820312 0 L 120.820312 138.109375 L 2.179688 138.109375 Z M 2.179688 0 "/></g></g><g clip-rule="nonzero" clip-path="url(#213edb650d)"><g clip-rule="nonzero" clip-path="url(#a71c54a0e6)"><path style="fill:none;stroke-width:29.987219;stroke-linecap:butt;stroke-linejoin:miter;stroke:#bc1142;stroke-opacity:1;stroke-miterlimit:4;" d="M 85.976514 4.022298 L 151.21385 41.97885 C 155.491452 44.469342 158.12262 49.043927 158.12262 53.998859 L 158.12262 130.005748 C 158.12262 134.95547 155.491452 139.530055 151.21385 142.020547 L 85.976514 179.977099 C 81.704122 182.46238 76.420946 182.46238 72.148554 179.977099 L 6.911218 142.020547 C 2.633616 139.530055 0.0024483 134.95547 0.0024483 130.005748 L 0.0024483 53.998859 C 0.0024483 49.043927 2.633616 44.469342 6.911218 41.97885 L 72.148554 4.022298 C 76.420946 1.537016 81.704122 1.537016 85.976514 4.022298 Z M 85.976514 4.022298 " transform="matrix(0.749726,0,0,0.749726,2.177852,0.000002)"/></g></g><g clip-rule="nonzero" clip-path="url(#261ddc410f)"><path style=" stroke:none;fill-rule:nonzero;fill:#000000;fill-opacity:1;" d="M 46.851562 28.910156 C 46.34375 28.941406 45.898438 29.125 45.515625 29.460938 C 44.960938 29.152344 44.371094 29.03125 43.742188 29.089844 C 43.117188 29.148438 42.558594 29.382812 42.074219 29.785156 C 41.609375 29.628906 41.144531 29.621094 40.675781 29.753906 C 40.203125 29.890625 39.816406 30.148438 39.503906 30.527344 C 38.832031 30.382812 38.164062 30.414062 37.503906 30.613281 C 36.84375 30.8125 36.273438 31.15625 35.792969 31.648438 C 33.058594 31.324219 32.265625 33.210938 33.222656 34.992188 C 33.011719 35.21875 32.855469 35.480469 32.75 35.769531 C 32.644531 36.0625 32.601562 36.359375 32.613281 36.671875 C 32.628906 36.980469 32.703125 37.273438 32.839844 37.550781 C 32.972656 37.832031 33.15625 38.074219 33.386719 38.277344 C 33.199219 38.828125 33.1875 39.386719 33.351562 39.941406 C 33.519531 40.5 33.828125 40.960938 34.289062 41.320312 C 34.179688 41.863281 34.242188 42.386719 34.472656 42.890625 C 34.703125 43.394531 35.0625 43.785156 35.542969 44.058594 C 35.578125 44.730469 35.785156 45.34375 36.164062 45.898438 C 36.542969 46.453125 37.035156 46.871094 37.648438 47.152344 C 37.699219 47.484375 37.804688 47.796875 37.964844 48.09375 C 38.125 48.390625 38.328125 48.652344 38.574219 48.878906 C 38.824219 49.105469 39.101562 49.285156 39.410156 49.417969 C 39.722656 49.546875 40.042969 49.625 40.378906 49.644531 C 40.46875 49.9375 40.601562 50.210938 40.78125 50.464844 C 40.957031 50.71875 41.167969 50.9375 41.410156 51.125 C 41.65625 51.308594 41.921875 51.453125 42.214844 51.558594 C 42.503906 51.660156 42.800781 51.714844 43.109375 51.726562 C 42.515625 52 41.949219 52.320312 41.402344 52.6875 C 40.859375 53.050781 40.347656 53.453125 39.863281 53.898438 C 39.382812 54.34375 38.9375 54.820312 38.53125 55.332031 C 38.121094 55.84375 37.753906 56.386719 37.429688 56.957031 C 37.105469 57.527344 36.828125 58.117188 36.59375 58.730469 C 36.359375 59.34375 36.175781 59.96875 36.039062 60.609375 C 35.898438 61.253906 35.8125 61.898438 35.777344 62.554688 C 35.738281 63.210938 35.753906 63.863281 35.816406 64.515625 L 35.296875 65.449219 C 34.933594 65.695312 34.585938 65.964844 34.25 66.25 C 33.917969 66.535156 33.597656 66.835938 33.296875 67.15625 C 32.992188 67.476562 32.707031 67.808594 32.441406 68.160156 C 32.175781 68.511719 31.925781 68.875 31.699219 69.25 C 31.472656 69.628906 31.265625 70.015625 31.078125 70.414062 C 30.890625 70.8125 30.726562 71.21875 30.582031 71.636719 C 30.441406 72.054688 30.320312 72.476562 30.222656 72.90625 C 30.125 73.335938 30.050781 73.769531 29.996094 74.207031 C 29.945312 74.644531 29.917969 75.082031 29.914062 75.523438 C 29.90625 75.964844 29.925781 76.402344 29.96875 76.839844 C 30.011719 77.28125 30.078125 77.714844 30.164062 78.148438 C 30.253906 78.578125 30.363281 79.003906 30.5 79.421875 C 30.632812 79.84375 30.789062 80.253906 30.964844 80.65625 C 31.144531 81.058594 31.34375 81.453125 31.5625 81.832031 C 31.78125 82.214844 32.023438 82.582031 32.28125 82.941406 C 32.539062 83.296875 32.816406 83.636719 33.113281 83.960938 C 33.527344 85.835938 34.09375 87.660156 34.808594 89.4375 C 34.964844 90.644531 35.273438 91.8125 35.738281 92.933594 C 36.203125 94.058594 36.804688 95.101562 37.546875 96.066406 C 38.289062 97.027344 39.144531 97.878906 40.109375 98.613281 C 41.078125 99.347656 42.125 99.941406 43.25 100.394531 C 45.726562 102.386719 48.460938 103.921875 51.449219 104.996094 C 52.710938 106.410156 54.207031 107.507812 55.933594 108.285156 C 57.664062 109.0625 59.472656 109.453125 61.367188 109.460938 L 61.53125 109.460938 C 63.421875 109.453125 65.234375 109.0625 66.960938 108.285156 C 68.6875 107.507812 70.183594 106.410156 71.449219 104.996094 C 74.4375 103.921875 77.167969 102.386719 79.644531 100.394531 C 80.769531 99.941406 81.816406 99.347656 82.785156 98.613281 C 83.753906 97.878906 84.609375 97.027344 85.351562 96.066406 C 86.089844 95.101562 86.695312 94.058594 87.160156 92.933594 C 87.625 91.8125 87.933594 90.644531 88.089844 89.4375 C 88.804688 87.660156 89.371094 85.835938 89.785156 83.960938 C 90.078125 83.636719 90.355469 83.296875 90.617188 82.941406 C 90.875 82.582031 91.113281 82.214844 91.332031 81.832031 C 91.554688 81.453125 91.753906 81.058594 91.929688 80.65625 C 92.109375 80.253906 92.265625 79.84375 92.398438 79.421875 C 92.53125 79.003906 92.644531 78.578125 92.730469 78.148438 C 92.820312 77.714844 92.886719 77.28125 92.929688 76.839844 C 92.96875 76.402344 92.988281 75.964844 92.984375 75.523438 C 92.980469 75.082031 92.949219 74.644531 92.898438 74.207031 C 92.847656 73.769531 92.773438 73.335938 92.675781 72.90625 C 92.578125 72.476562 92.457031 72.054688 92.3125 71.636719 C 92.171875 71.21875 92.003906 70.8125 91.820312 70.414062 C 91.632812 70.015625 91.425781 69.628906 91.195312 69.25 C 90.96875 68.875 90.722656 68.511719 90.457031 68.160156 C 90.1875 67.808594 89.902344 67.476562 89.601562 67.15625 C 89.300781 66.835938 88.980469 66.535156 88.644531 66.25 C 88.3125 65.964844 87.960938 65.695312 87.597656 65.449219 L 86.726562 64.515625 C 86.78125 63.875 86.789062 63.234375 86.746094 62.589844 C 86.703125 61.949219 86.617188 61.3125 86.476562 60.683594 C 86.339844 60.054688 86.15625 59.441406 85.925781 58.839844 C 85.695312 58.238281 85.421875 57.660156 85.105469 57.097656 C 84.785156 56.539062 84.429688 56.007812 84.03125 55.503906 C 83.632812 54.996094 83.199219 54.523438 82.730469 54.085938 C 82.261719 53.644531 81.761719 53.246094 81.230469 52.882812 C 80.699219 52.519531 80.144531 52.195312 79.566406 51.917969 C 79.875 51.90625 80.171875 51.851562 80.464844 51.75 C 80.753906 51.648438 81.019531 51.503906 81.265625 51.316406 C 81.511719 51.128906 81.722656 50.910156 81.898438 50.65625 C 82.074219 50.40625 82.207031 50.132812 82.296875 49.835938 C 82.632812 49.816406 82.957031 49.738281 83.265625 49.609375 C 83.574219 49.476562 83.851562 49.296875 84.101562 49.070312 C 84.351562 48.84375 84.554688 48.582031 84.714844 48.289062 C 84.871094 47.992188 84.976562 47.675781 85.03125 47.34375 C 85.640625 47.0625 86.132812 46.648438 86.511719 46.089844 C 86.890625 45.535156 87.097656 44.921875 87.132812 44.25 C 87.617188 43.976562 87.972656 43.589844 88.203125 43.085938 C 88.433594 42.578125 88.496094 42.054688 88.390625 41.511719 C 88.847656 41.152344 89.160156 40.695312 89.324219 40.136719 C 89.488281 39.578125 89.476562 39.023438 89.289062 38.472656 C 89.523438 38.265625 89.703125 38.023438 89.839844 37.746094 C 89.972656 37.464844 90.046875 37.171875 90.0625 36.863281 C 90.078125 36.554688 90.03125 36.253906 89.925781 35.960938 C 89.820312 35.671875 89.664062 35.410156 89.453125 35.183594 C 90.410156 33.429688 89.453125 31.542969 86.886719 31.84375 C 86.410156 31.292969 85.824219 30.898438 85.136719 30.664062 C 84.449219 30.429688 83.746094 30.382812 83.035156 30.527344 C 82.726562 30.152344 82.339844 29.898438 81.878906 29.765625 C 81.414062 29.628906 80.953125 29.636719 80.492188 29.785156 C 80.007812 29.382812 79.453125 29.148438 78.824219 29.089844 C 78.195312 29.03125 77.605469 29.152344 77.050781 29.460938 C 76.792969 29.285156 76.507812 29.152344 76.207031 29.070312 C 75.902344 28.984375 75.59375 28.945312 75.28125 28.957031 C 74.96875 28.972656 74.664062 29.03125 74.367188 29.140625 C 74.074219 29.25 73.800781 29.402344 73.554688 29.597656 C 73.042969 29.414062 72.519531 29.371094 71.984375 29.464844 C 71.449219 29.554688 70.972656 29.773438 70.550781 30.117188 C 70.222656 30.042969 69.894531 30.023438 69.558594 30.058594 C 69.226562 30.089844 68.90625 30.175781 68.601562 30.316406 C 68.292969 30.453125 68.019531 30.636719 67.773438 30.863281 C 67.527344 31.09375 67.324219 31.355469 67.164062 31.648438 L 66.09375 31.648438 C 64.90625 32.480469 63.898438 33.488281 63.070312 34.683594 C 62.242188 35.875 61.648438 37.175781 61.285156 38.582031 C 60.941406 37.144531 60.355469 35.816406 59.527344 34.59375 C 58.699219 33.371094 57.679688 32.335938 56.476562 31.488281 L 55.40625 31.488281 C 55.234375 31.207031 55.023438 30.960938 54.769531 30.75 C 54.519531 30.535156 54.242188 30.367188 53.9375 30.246094 C 53.632812 30.121094 53.316406 30.050781 52.988281 30.027344 C 52.660156 30.007812 52.339844 30.035156 52.019531 30.117188 C 51.59375 29.765625 51.105469 29.539062 50.558594 29.449219 C 50.011719 29.355469 49.480469 29.40625 48.957031 29.597656 C 48.296875 29.25 47.59375 29.023438 46.855469 28.910156 Z M 46.851562 28.910156 "/></g><path style=" stroke:none;fill-rule:nonzero;fill:#75a928;fill-opacity:1;" d="M 41.144531 36.386719 C 46.535156 38.832031 51.359375 42.109375 55.625 46.21875 C 54.421875 51.207031 47.890625 51.453125 45.515625 51.320312 C 45.988281 51.164062 46.332031 50.863281 46.554688 50.414062 C 45.136719 50.234375 43.746094 49.941406 42.375 49.539062 C 42.863281 49.519531 43.238281 49.300781 43.496094 48.882812 C 42.148438 48.578125 40.890625 48.058594 39.726562 47.320312 C 40.269531 47.40625 40.769531 47.296875 41.230469 46.996094 C 39.917969 46.421875 38.714844 45.671875 37.621094 44.746094 C 38.15625 44.816406 38.664062 44.734375 39.152344 44.5 C 38.078125 43.847656 37.113281 43.0625 36.257812 42.148438 C 36.773438 42.292969 37.277344 42.246094 37.761719 42.007812 C 36.785156 41.230469 35.953125 40.316406 35.273438 39.269531 C 35.847656 39.578125 36.421875 39.578125 36.992188 39.269531 C 36.128906 38.449219 35.371094 37.535156 34.726562 36.53125 C 35.265625 36.652344 35.800781 36.652344 36.335938 36.53125 C 36.042969 35.519531 35.5625 34.605469 34.890625 33.792969 C 36.121094 33.882812 37.347656 33.882812 38.578125 33.792969 L 37.679688 32.699219 C 39.074219 32.441406 40.433594 32.578125 41.75 33.109375 C 42.242188 32.726562 41.75 32.234375 41.121094 31.742188 C 42.292969 31.886719 43.433594 32.171875 44.539062 32.589844 C 45.054688 32.097656 44.15625 31.660156 43.722656 31.113281 C 45.019531 31.308594 46.214844 31.773438 47.300781 32.507812 C 47.929688 31.933594 47.300781 31.46875 46.945312 30.976562 C 48.082031 31.414062 49.085938 32.0625 49.949219 32.921875 C 50.066406 32.832031 50.160156 32.726562 50.230469 32.597656 C 50.300781 32.472656 50.34375 32.335938 50.359375 32.191406 C 50.375 32.046875 50.359375 31.902344 50.320312 31.765625 C 50.277344 31.625 50.207031 31.5 50.113281 31.390625 C 51.0625 31.910156 51.863281 32.605469 52.519531 33.46875 C 52.730469 33.285156 52.871094 33.058594 52.941406 32.789062 C 53.011719 32.519531 53 32.253906 52.902344 31.988281 C 53.886719 32.828125 54.796875 33.742188 55.632812 34.726562 C 55.894531 34.367188 56.042969 33.96875 56.070312 33.523438 C 58.636719 36.015625 62.269531 42.3125 57 44.808594 C 52.222656 41.027344 46.933594 38.222656 41.125 36.398438 Z M 81.578125 36.386719 C 76.1875 38.832031 71.359375 42.109375 67.097656 46.21875 C 68.351562 51.207031 74.828125 51.453125 77.207031 51.320312 C 76.773438 51.132812 76.464844 50.820312 76.277344 50.386719 C 77.691406 50.207031 79.085938 49.914062 80.457031 49.511719 C 79.980469 49.480469 79.613281 49.261719 79.363281 48.855469 C 80.710938 48.550781 81.964844 48.03125 83.132812 47.292969 C 82.582031 47.386719 82.070312 47.277344 81.605469 46.964844 C 82.917969 46.394531 84.121094 45.644531 85.210938 44.71875 C 84.679688 44.789062 84.167969 44.707031 83.683594 44.472656 C 84.753906 43.820312 85.71875 43.035156 86.578125 42.117188 C 86.058594 42.261719 85.558594 42.21875 85.074219 41.980469 C 86.050781 41.203125 86.878906 40.289062 87.5625 39.242188 C 86.988281 39.546875 86.414062 39.546875 85.839844 39.242188 C 86.707031 38.421875 87.460938 37.507812 88.105469 36.503906 C 87.570312 36.625 87.035156 36.625 86.496094 36.503906 C 86.789062 35.492188 87.273438 34.578125 87.945312 33.765625 C 86.714844 33.855469 85.484375 33.855469 84.253906 33.765625 L 85.183594 32.804688 C 83.789062 32.550781 82.429688 32.6875 81.113281 33.21875 C 80.617188 32.832031 81.113281 32.34375 81.738281 31.847656 C 80.566406 31.996094 79.429688 32.277344 78.324219 32.699219 C 77.695312 32.070312 78.570312 31.660156 79.035156 31.109375 C 77.734375 31.304688 76.542969 31.769531 75.453125 32.507812 C 74.828125 31.929688 75.453125 31.46875 75.808594 30.972656 C 74.671875 31.410156 73.671875 32.058594 72.804688 32.917969 C 72.6875 32.832031 72.59375 32.726562 72.519531 32.597656 C 72.445312 32.472656 72.398438 32.339844 72.382812 32.191406 C 72.363281 32.046875 72.375 31.90625 72.414062 31.765625 C 72.453125 31.625 72.519531 31.5 72.613281 31.386719 C 71.664062 31.90625 70.863281 32.601562 70.207031 33.464844 C 69.996094 33.285156 69.855469 33.058594 69.785156 32.785156 C 69.714844 32.515625 69.730469 32.25 69.824219 31.988281 C 68.839844 32.824219 67.929688 33.738281 67.09375 34.726562 C 66.832031 34.367188 66.6875 33.964844 66.65625 33.519531 C 64.089844 36.011719 60.457031 42.3125 65.726562 44.804688 C 70.46875 41.035156 75.722656 38.230469 81.492188 36.398438 Z M 81.578125 36.386719 "/><path style=" stroke:none;fill-rule:nonzero;fill:#bc1142;fill-opacity:1;" d="M 70.59375 87.25 C 70.574219 87.824219 70.496094 88.394531 70.363281 88.957031 C 70.230469 89.519531 70.046875 90.0625 69.804688 90.585938 C 69.566406 91.113281 69.28125 91.609375 68.941406 92.078125 C 68.605469 92.546875 68.226562 92.976562 67.808594 93.371094 C 67.386719 93.765625 66.929688 94.113281 66.441406 94.417969 C 65.953125 94.722656 65.4375 94.976562 64.898438 95.179688 C 64.359375 95.382812 63.808594 95.53125 63.238281 95.625 C 62.671875 95.722656 62.097656 95.757812 61.523438 95.742188 C 60.945312 95.765625 60.375 95.734375 59.804688 95.648438 C 59.230469 95.5625 58.675781 95.417969 58.132812 95.222656 C 57.589844 95.023438 57.070312 94.777344 56.578125 94.476562 C 56.085938 94.175781 55.625 93.832031 55.199219 93.441406 C 54.773438 93.050781 54.386719 92.621094 54.046875 92.15625 C 53.703125 91.691406 53.410156 91.195312 53.164062 90.671875 C 52.921875 90.148438 52.730469 89.605469 52.589844 89.042969 C 52.453125 88.480469 52.371094 87.910156 52.34375 87.332031 C 52.363281 86.757812 52.441406 86.1875 52.574219 85.625 C 52.707031 85.0625 52.890625 84.519531 53.132812 83.996094 C 53.371094 83.46875 53.65625 82.972656 53.996094 82.503906 C 54.332031 82.035156 54.710938 81.605469 55.128906 81.210938 C 55.550781 80.816406 56.007812 80.46875 56.496094 80.164062 C 56.984375 79.859375 57.5 79.605469 58.039062 79.402344 C 58.578125 79.199219 59.128906 79.050781 59.699219 78.957031 C 60.265625 78.859375 60.839844 78.824219 61.414062 78.839844 C 61.992188 78.816406 62.5625 78.847656 63.132812 78.933594 C 63.707031 79.019531 64.261719 79.164062 64.804688 79.359375 C 65.347656 79.558594 65.867188 79.804688 66.359375 80.105469 C 66.851562 80.40625 67.3125 80.75 67.738281 81.140625 C 68.164062 81.53125 68.550781 81.957031 68.890625 82.425781 C 69.234375 82.890625 69.527344 83.386719 69.773438 83.910156 C 70.015625 84.433594 70.207031 84.976562 70.347656 85.539062 C 70.484375 86.101562 70.566406 86.671875 70.59375 87.25 Z M 56.167969 63.148438 C 56.625 63.511719 57.046875 63.917969 57.425781 64.363281 C 57.804688 64.8125 58.136719 65.289062 58.425781 65.804688 C 58.710938 66.316406 58.945312 66.851562 59.125 67.40625 C 59.308594 67.964844 59.433594 68.535156 59.507812 69.117188 C 59.578125 69.703125 59.589844 70.285156 59.546875 70.871094 C 59.503906 71.457031 59.40625 72.03125 59.25 72.597656 C 59.09375 73.164062 58.886719 73.710938 58.625 74.234375 C 58.363281 74.757812 58.054688 75.253906 57.695312 75.71875 C 57.410156 76.234375 57.074219 76.714844 56.695312 77.164062 C 56.316406 77.613281 55.894531 78.023438 55.4375 78.390625 C 54.976562 78.757812 54.484375 79.078125 53.964844 79.351562 C 53.441406 79.621094 52.898438 79.839844 52.335938 80.007812 C 51.769531 80.171875 51.195312 80.285156 50.609375 80.335938 C 50.023438 80.390625 49.441406 80.390625 48.855469 80.328125 C 48.269531 80.269531 47.695312 80.152344 47.132812 79.980469 C 46.570312 79.808594 46.03125 79.585938 45.511719 79.308594 C 45.054688 78.941406 44.632812 78.535156 44.253906 78.089844 C 43.875 77.644531 43.539062 77.164062 43.253906 76.652344 C 42.96875 76.140625 42.734375 75.605469 42.550781 75.046875 C 42.371094 74.488281 42.242188 73.917969 42.171875 73.335938 C 42.101562 72.753906 42.089844 72.167969 42.132812 71.585938 C 42.175781 71 42.273438 70.421875 42.429688 69.855469 C 42.582031 69.289062 42.792969 68.746094 43.054688 68.21875 C 43.316406 67.695312 43.625 67.199219 43.984375 66.734375 C 44.269531 66.222656 44.601562 65.738281 44.984375 65.289062 C 45.363281 64.839844 45.785156 64.429688 46.242188 64.0625 C 46.703125 63.695312 47.195312 63.375 47.714844 63.105469 C 48.238281 62.832031 48.78125 62.613281 49.34375 62.445312 C 49.910156 62.28125 50.484375 62.171875 51.070312 62.117188 C 51.652344 62.0625 52.238281 62.066406 52.824219 62.125 C 53.410156 62.1875 53.984375 62.300781 54.546875 62.472656 C 55.109375 62.644531 55.648438 62.871094 56.167969 63.148438 Z M 66.386719 62.683594 C 65.929688 63.046875 65.507812 63.453125 65.128906 63.898438 C 64.75 64.34375 64.417969 64.824219 64.128906 65.335938 C 63.84375 65.847656 63.609375 66.382812 63.425781 66.941406 C 63.246094 67.5 63.121094 68.070312 63.046875 68.652344 C 62.976562 69.234375 62.964844 69.820312 63.007812 70.40625 C 63.050781 70.988281 63.148438 71.566406 63.304688 72.132812 C 63.457031 72.699219 63.667969 73.242188 63.929688 73.769531 C 64.191406 74.292969 64.5 74.789062 64.859375 75.253906 C 65.144531 75.769531 65.480469 76.25 65.859375 76.699219 C 66.238281 77.148438 66.660156 77.558594 67.117188 77.925781 C 67.578125 78.292969 68.070312 78.613281 68.589844 78.882812 C 69.113281 79.15625 69.65625 79.375 70.21875 79.542969 C 70.785156 79.707031 71.359375 79.816406 71.945312 79.871094 C 72.53125 79.925781 73.113281 79.921875 73.699219 79.863281 C 74.285156 79.804688 74.859375 79.6875 75.421875 79.515625 C 75.984375 79.34375 76.523438 79.117188 77.042969 78.839844 C 77.5 78.476562 77.921875 78.070312 78.300781 77.625 C 78.679688 77.175781 79.011719 76.699219 79.300781 76.1875 C 79.585938 75.675781 79.820312 75.140625 80.003906 74.582031 C 80.183594 74.023438 80.3125 73.453125 80.382812 72.871094 C 80.453125 72.289062 80.464844 71.703125 80.421875 71.117188 C 80.378906 70.53125 80.28125 69.957031 80.125 69.390625 C 79.972656 68.824219 79.761719 68.28125 79.5 67.753906 C 79.238281 67.230469 78.929688 66.734375 78.570312 66.269531 C 78.285156 65.753906 77.953125 65.273438 77.570312 64.824219 C 77.191406 64.375 76.769531 63.964844 76.3125 63.597656 C 75.851562 63.230469 75.359375 62.910156 74.839844 62.636719 C 74.316406 62.367188 73.773438 62.148438 73.210938 61.980469 C 72.644531 61.816406 72.070312 61.703125 71.484375 61.652344 C 70.898438 61.597656 70.316406 61.601562 69.730469 61.660156 C 69.144531 61.71875 68.570312 61.835938 68.007812 62.007812 C 67.445312 62.179688 66.90625 62.40625 66.386719 62.683594 Z M 37.265625 67.253906 C 41.363281 66.160156 38.632812 84.207031 35.328125 82.726562 C 35.054688 82.464844 34.800781 82.1875 34.5625 81.898438 C 34.324219 81.605469 34.105469 81.300781 33.902344 80.984375 C 33.699219 80.667969 33.515625 80.339844 33.351562 80 C 33.1875 79.660156 33.039062 79.3125 32.917969 78.957031 C 32.792969 78.601562 32.6875 78.242188 32.605469 77.875 C 32.523438 77.507812 32.460938 77.132812 32.421875 76.761719 C 32.378906 76.386719 32.363281 76.007812 32.367188 75.632812 C 32.367188 75.253906 32.394531 74.878906 32.441406 74.503906 C 32.488281 74.132812 32.554688 73.761719 32.644531 73.394531 C 32.734375 73.03125 32.847656 72.671875 32.976562 72.316406 C 33.109375 71.964844 33.261719 71.621094 33.429688 71.285156 C 33.601562 70.949219 33.792969 70.625 34 70.308594 C 34.210938 69.996094 34.433594 69.695312 34.679688 69.410156 C 34.921875 69.121094 35.179688 68.847656 35.457031 68.59375 C 35.730469 68.335938 36.019531 68.09375 36.324219 67.871094 C 36.625 67.648438 36.941406 67.441406 37.265625 67.253906 Z M 84.472656 66.980469 C 80.378906 65.886719 83.109375 83.933594 86.414062 82.453125 C 86.683594 82.191406 86.9375 81.914062 87.175781 81.625 C 87.414062 81.332031 87.636719 81.027344 87.839844 80.710938 C 88.042969 80.394531 88.226562 80.066406 88.390625 79.726562 C 88.554688 79.386719 88.699219 79.039062 88.824219 78.683594 C 88.949219 78.328125 89.054688 77.96875 89.136719 77.601562 C 89.21875 77.230469 89.28125 76.859375 89.320312 76.484375 C 89.359375 76.109375 89.378906 75.734375 89.375 75.359375 C 89.371094 74.980469 89.347656 74.605469 89.300781 74.230469 C 89.253906 73.859375 89.183594 73.488281 89.09375 73.121094 C 89.007812 72.753906 88.894531 72.394531 88.765625 72.042969 C 88.632812 71.691406 88.480469 71.34375 88.308594 71.007812 C 88.140625 70.675781 87.949219 70.347656 87.742188 70.035156 C 87.53125 69.722656 87.304688 69.421875 87.0625 69.132812 C 86.820312 68.847656 86.558594 68.574219 86.285156 68.316406 C 86.011719 68.0625 85.722656 67.820312 85.417969 67.597656 C 85.117188 67.375 84.800781 67.167969 84.472656 66.980469 Z M 70.597656 53.5625 C 77.644531 52.359375 83.519531 56.574219 83.273438 64.246094 C 83.054688 67.257812 68.085938 53.976562 70.597656 53.5625 Z M 51.082031 53.34375 C 44.03125 52.136719 38.160156 56.355469 38.402344 64.027344 C 38.625 66.953125 53.675781 53.785156 51.082031 53.34375 Z M 61.222656 51.566406 C 57.015625 51.566406 53.058594 54.6875 53.058594 56.574219 C 53.058594 58.464844 56.394531 61.203125 61.222656 61.257812 C 66.050781 61.316406 69.386719 59.394531 69.386719 57.042969 C 69.386719 54.6875 64.769531 51.566406 61.054688 51.566406 Z M 61.496094 98.367188 C 65.15625 98.203125 70.074219 99.546875 70.097656 101.328125 C 70.125 103.109375 65.644531 106.972656 61.246094 106.804688 C 56.84375 106.636719 52.253906 103.082031 52.3125 101.703125 C 52.3125 99.707031 57.773438 98.148438 61.492188 98.253906 Z M 47.941406 87.792969 C 50.671875 90.941406 51.710938 96.503906 49.550781 98.117188 C 47.394531 99.730469 42.476562 98.855469 38.925781 93.734375 C 36.546875 89.40625 36.851562 85.054688 38.542969 83.683594 C 41.054688 82.148438 44.960938 84.230469 47.964844 87.710938 Z M 74.527344 86.785156 C 71.796875 90.101562 70.132812 96.152344 72.179688 98.097656 C 74.148438 99.609375 79.449219 99.414062 83.355469 93.960938 C 83.925781 93.128906 84.367188 92.234375 84.675781 91.273438 C 84.988281 90.3125 85.152344 89.328125 85.179688 88.320312 C 85.203125 87.3125 85.082031 86.320312 84.820312 85.34375 C 84.554688 84.371094 84.160156 83.453125 83.628906 82.597656 C 81.226562 80.734375 77.757812 83.117188 74.53125 86.78125 Z M 74.527344 86.785156 "/></g></svg>