<svg xmlns="http://www.w3.org/2000/svg" xmlns:xlink="http://www.w3.org/1999/xlink" width="260" zoomAndPan="magnify" viewBox="0 0 194.87999 193.499995" height="258" preserveAspectRatio="xMidYMid meet" version="1.2"><defs><clipPath id="57e34ce704"><path d="M 3.78125 37.582031 L 190.796875 37.582031 L 190.796875 155.777344 L 3.78125 155.777344 Z M 3.78125 37.582031 "/></clipPath></defs><g id="25fe2141ca"><g clip-rule="nonzero" clip-path="url(#57e34ce704)"><path style=" stroke:none;fill-rule:nonzero;fill:#00979c;fill-opacity:1;" d="M 13.59375 123.304688 L 3.957031 154.765625 L 11.539062 154.765625 L 13.277344 148.902344 L 22.679688 148.902344 L 24.375 154.765625 L 32.617188 154.765625 L 22.980469 123.304688 Z M 15.183594 142.574219 L 18.046875 132.792969 L 20.878906 142.574219 Z M 50.734375 140.414062 L 50.386719 140.066406 L 51.082031 139.777344 C 51.984375 139.371094 52.78125 138.8125 53.472656 138.105469 C 54.136719 137.414062 54.679688 136.570312 55.046875 135.613281 C 55.417969 134.660156 55.601562 133.585938 55.601562 132.394531 C 55.601562 130.746094 55.304688 129.324219 54.71875 128.15625 C 54.128906 126.972656 53.28125 126.011719 52.175781 125.273438 C 51.113281 124.5625 49.824219 124.046875 48.335938 123.746094 C 46.902344 123.457031 45.296875 123.3125 43.550781 123.3125 L 33.714844 123.3125 L 33.714844 154.769531 L 41.261719 154.769531 L 41.261719 142.476562 L 41.484375 142.476562 C 42.242188 142.453125 42.941406 142.636719 43.589844 143.03125 C 44.175781 143.40625 44.621094 143.953125 44.960938 144.707031 L 49.523438 154.765625 L 58.300781 154.765625 L 52.789062 143.542969 C 52.117188 142.179688 51.453125 141.15625 50.761719 140.410156 Z M 47.453125 134.378906 C 47.234375 134.792969 46.929688 135.132812 46.527344 135.417969 C 46.042969 135.742188 45.519531 135.972656 44.953125 136.101562 C 44.222656 136.273438 43.480469 136.355469 42.730469 136.347656 L 41.261719 136.347656 L 41.261719 129.695312 L 42.917969 129.695312 C 44.644531 129.695312 45.929688 129.96875 46.753906 130.503906 C 47.457031 130.96875 47.796875 131.78125 47.796875 132.90625 C 47.796875 133.464844 47.691406 133.933594 47.472656 134.347656 Z M 80.40625 127.042969 C 79.132812 125.765625 77.53125 124.8125 75.640625 124.230469 C 73.800781 123.636719 71.632812 123.335938 69.199219 123.335938 L 59.222656 123.335938 L 59.222656 154.792969 L 67.910156 154.792969 C 70.710938 154.792969 73.160156 154.410156 75.199219 153.660156 C 77.261719 152.898438 78.984375 151.792969 80.316406 150.371094 C 81.652344 148.949219 82.621094 147.222656 83.265625 145.222656 C 83.878906 143.269531 84.1875 141.070312 84.1875 138.6875 C 84.1875 136.09375 83.878906 133.816406 83.265625 131.921875 C 82.640625 129.976562 81.679688 128.347656 80.410156 127.074219 Z M 74.234375 146.164062 C 72.925781 147.621094 71.027344 148.324219 68.429688 148.324219 L 66.765625 148.324219 L 66.765625 129.75 L 68.828125 129.75 C 70.285156 129.75 71.5 129.957031 72.453125 130.363281 C 73.339844 130.722656 74.070312 131.289062 74.636719 132.058594 C 75.195312 132.828125 75.597656 133.789062 75.839844 134.917969 C 76.089844 136.113281 76.222656 137.496094 76.222656 139.03125 C 76.222656 142.304688 75.558594 144.707031 74.238281 146.191406 Z M 102.363281 143.320312 C 102.363281 144.402344 102.257812 145.328125 102.0625 146.066406 C 101.878906 146.757812 101.601562 147.34375 101.25 147.738281 C 100.902344 148.132812 100.496094 148.429688 99.984375 148.609375 C 99.425781 148.808594 98.710938 148.90625 97.859375 148.90625 C 96.960938 148.90625 96.214844 148.792969 95.648438 148.5625 C 95.125 148.355469 94.679688 148.035156 94.316406 147.601562 C 93.933594 147.128906 93.679688 146.59375 93.554688 146 C 93.378906 145.1875 93.296875 144.371094 93.308594 143.542969 L 93.308594 123.304688 L 85.761719 123.304688 L 85.761719 143.882812 C 85.761719 145.582031 85.972656 147.140625 86.386719 148.519531 C 86.820312 149.953125 87.527344 151.1875 88.5 152.195312 C 89.472656 153.203125 90.742188 153.980469 92.28125 154.503906 C 93.773438 155.015625 95.605469 155.28125 97.644531 155.28125 C 99.488281 155.28125 101.183594 155.019531 102.679688 154.503906 C 104.207031 153.980469 105.523438 153.1875 106.59375 152.144531 C 107.664062 151.101562 108.496094 149.785156 109.0625 148.238281 C 109.621094 146.71875 109.90625 144.914062 109.90625 142.949219 L 109.90625 123.304688 L 102.359375 123.304688 L 102.359375 143.316406 M 113.761719 129.632812 L 120.53125 129.632812 L 120.53125 148.386719 L 113.761719 148.386719 L 113.761719 154.761719 L 134.9375 154.761719 L 134.9375 148.386719 L 128.167969 148.386719 L 128.167969 129.632812 L 134.9375 129.632812 L 134.9375 123.3125 L 113.761719 123.3125 L 113.761719 129.636719 M 155.960938 141.234375 L 147.527344 123.3125 L 138.984375 123.3125 L 138.984375 154.769531 L 146.011719 154.769531 L 146.011719 136.503906 L 154.488281 154.769531 L 162.984375 154.769531 L 162.984375 123.3125 L 155.933594 123.3125 L 155.933594 141.234375 M 187.382812 127.03125 C 185.183594 124.230469 181.878906 122.808594 177.570312 122.808594 C 175.726562 122.808594 173.96875 123.136719 172.34375 123.78125 C 170.664062 124.449219 169.222656 125.457031 168.015625 126.804688 C 166.789062 128.160156 165.84375 129.875 165.152344 131.933594 C 164.472656 133.96875 164.128906 136.410156 164.128906 139.1875 C 164.128906 144.320312 165.222656 148.3125 167.378906 151.054688 C 169.578125 153.863281 172.882812 155.289062 177.191406 155.289062 C 178.996094 155.296875 180.738281 154.972656 182.417969 154.316406 C 184.066406 153.660156 185.519531 152.644531 186.765625 151.292969 C 188.011719 149.941406 188.941406 148.222656 189.628906 146.164062 C 190.304688 144.128906 190.652344 141.6875 190.652344 138.910156 C 190.652344 133.761719 189.5625 129.761719 187.40625 127.027344 Z M 182.421875 143.398438 C 182.207031 144.558594 181.867188 145.539062 181.417969 146.308594 C 180.992188 147.042969 180.464844 147.578125 179.808594 147.949219 C 179.148438 148.320312 178.335938 148.507812 177.382812 148.507812 C 175.496094 148.507812 174.1875 147.808594 173.367188 146.359375 C 172.472656 144.773438 172.011719 142.277344 172.011719 138.933594 C 172.011719 137.363281 172.125 135.953125 172.347656 134.742188 C 172.5625 133.585938 172.90625 132.609375 173.359375 131.835938 C 173.75 131.140625 174.285156 130.59375 174.976562 130.191406 C 175.621094 129.824219 176.433594 129.636719 177.386719 129.636719 C 179.285156 129.636719 180.601562 130.335938 181.414062 131.777344 C 182.308594 133.363281 182.757812 135.863281 182.757812 139.207031 C 182.757812 140.78125 182.644531 142.191406 182.421875 143.394531 Z M 133.570312 110.164062 C 123.742188 110.164062 115.335938 106.851562 107.945312 100.074219 C 103.375 95.886719 99.605469 90.757812 96.144531 85.425781 C 92.679688 90.757812 88.910156 95.910156 84.34375 100.074219 C 76.398438 107.355469 67.285156 110.640625 56.464844 110.109375 C 35.886719 110.023438 19.175781 93.78125 19.175781 73.832031 C 19.175781 53.828125 35.980469 37.550781 56.640625 37.550781 C 67.945312 37.550781 77.457031 41.292969 85.730469 48.984375 C 89.707031 52.679688 93.058594 56.96875 96.117188 61.457031 C 99.175781 56.96875 102.53125 52.683594 106.5 48.984375 C 114.769531 41.3125 124.289062 37.550781 135.59375 37.550781 C 156.25 37.550781 173.054688 53.828125 173.054688 73.832031 C 173.054688 93.78125 156.339844 110.023438 135.765625 110.109375 C 135.019531 110.148438 134.277344 110.164062 133.546875 110.164062 Z M 103.664062 73.316406 C 107.765625 79.96875 111.746094 86.160156 116.589844 90.601562 C 122.066406 95.613281 127.828125 97.679688 135.261719 97.285156 L 135.59375 97.273438 C 149.191406 97.273438 160.25 86.746094 160.25 73.800781 C 160.25 60.855469 149.1875 50.328125 135.59375 50.328125 C 127.570312 50.328125 121.09375 52.871094 115.222656 58.332031 C 110.835938 62.414062 107.21875 67.640625 103.636719 73.320312 Z M 56.65625 50.300781 C 43.0625 50.300781 32.003906 60.832031 32.003906 73.773438 C 32.003906 86.714844 43.0625 97.246094 56.65625 97.246094 L 56.988281 97.257812 C 64.445312 97.652344 70.210938 95.589844 75.679688 90.574219 C 80.527344 86.132812 84.503906 79.941406 88.605469 73.289062 C 85.03125 67.613281 81.410156 62.382812 77.027344 58.300781 C 71.152344 52.839844 64.679688 50.296875 56.65625 50.296875 Z M 56.65625 50.300781 "/></g><path style=" stroke:none;fill-rule:nonzero;fill:#00979c;fill-opacity:1;" d="M 137.316406 69.148438 L 137.316406 62.207031 L 130.089844 62.207031 L 130.089844 69.148438 L 123.121094 69.148438 L 123.121094 76.339844 L 130.066406 76.339844 L 130.066406 83.363281 L 137.292969 83.363281 L 137.292969 76.367188 L 144.238281 76.367188 L 144.238281 69.175781 L 137.316406 69.175781 M 46.265625 69.066406 L 69.085938 69.066406 L 69.085938 76.480469 L 46.265625 76.480469 Z M 46.265625 69.066406 "/></g></svg>