<svg xmlns="http://www.w3.org/2000/svg" xmlns:xlink="http://www.w3.org/1999/xlink" width="260" zoomAndPan="magnify" viewBox="0 0 194.87999 193.499995" height="258" preserveAspectRatio="xMidYMid meet" version="1.2"><defs><clipPath id="78cc7cb5a9"><path d="M 9.460938 8 L 135 8 L 135 93 L 9.460938 93 Z M 9.460938 8 "/></clipPath><clipPath id="b5ef3c63da"><path d="M 9.460938 96 L 14 96 L 14 100 L 9.460938 100 Z M 9.460938 96 "/></clipPath></defs><g id="5fbf7c8974"><path style=" stroke:none;fill-rule:nonzero;fill:#f0c020;fill-opacity:1;" d="M 179.359375 73.859375 C 181.050781 81.039062 181.886719 88.316406 181.871094 95.695312 C 181.855469 103.070312 180.988281 110.34375 179.269531 117.519531 C 179.03125 118.53125 178.714844 119.515625 178.308594 120.472656 C 177.90625 121.433594 177.429688 122.351562 176.871094 123.230469 C 176.316406 124.105469 175.6875 124.933594 174.992188 125.703125 C 174.296875 126.476562 173.542969 127.1875 172.730469 127.832031 C 171.914062 128.476562 171.054688 129.050781 170.144531 129.550781 C 169.234375 130.050781 168.289062 130.472656 167.308594 130.8125 C 166.324219 131.15625 165.324219 131.414062 164.300781 131.585938 C 163.277344 131.757812 162.246094 131.84375 161.207031 131.84375 L 132.878906 131.84375 L 132.878906 160.214844 C 132.878906 168.273438 127.644531 176.167969 118.171875 178.402344 C 111.074219 180.074219 103.882812 180.910156 96.597656 180.910156 C 89.308594 180.910156 82.117188 180.074219 75.023438 178.40625 C 65.566406 176.179688 60.292969 168.320312 60.292969 160.214844 L 60.292969 114.082031 C 60.292969 113.476562 60.320312 112.867188 60.382812 112.261719 C 60.441406 111.65625 60.53125 111.054688 60.648438 110.457031 C 60.765625 109.859375 60.914062 109.269531 61.089844 108.6875 C 61.269531 108.105469 61.472656 107.535156 61.703125 106.972656 C 61.9375 106.410156 62.195312 105.859375 62.484375 105.324219 C 62.769531 104.785156 63.082031 104.265625 63.421875 103.757812 C 63.757812 103.253906 64.121094 102.765625 64.503906 102.292969 C 64.890625 101.824219 65.296875 101.371094 65.726562 100.941406 C 66.15625 100.511719 66.609375 100.101562 67.078125 99.71875 C 67.546875 99.332031 68.035156 98.96875 68.539062 98.628906 C 69.046875 98.292969 69.566406 97.980469 70.101562 97.691406 C 70.640625 97.40625 71.1875 97.144531 71.75 96.914062 C 72.3125 96.679688 72.882812 96.476562 73.464844 96.300781 C 74.046875 96.121094 74.632812 95.972656 75.230469 95.855469 C 75.828125 95.738281 76.425781 95.648438 77.03125 95.589844 C 77.636719 95.527344 78.242188 95.5 78.851562 95.5 L 114.316406 95.5 C 114.925781 95.5 115.53125 95.46875 116.136719 95.410156 C 116.742188 95.347656 117.34375 95.261719 117.9375 95.140625 C 118.535156 95.023438 119.125 94.875 119.707031 94.699219 C 120.285156 94.523438 120.859375 94.316406 121.421875 94.082031 C 121.980469 93.851562 122.53125 93.589844 123.066406 93.304688 C 123.601562 93.015625 124.125 92.703125 124.628906 92.367188 C 125.132812 92.027344 125.621094 91.667969 126.089844 91.28125 C 126.5625 90.894531 127.011719 90.484375 127.441406 90.054688 C 127.871094 89.625 128.277344 89.175781 128.664062 88.703125 C 129.050781 88.234375 129.410156 87.746094 129.75 87.238281 C 130.085938 86.734375 130.398438 86.210938 130.683594 85.675781 C 130.972656 85.140625 131.230469 84.589844 131.464844 84.027344 C 131.695312 83.464844 131.902344 82.890625 132.078125 82.308594 C 132.253906 81.726562 132.402344 81.136719 132.519531 80.539062 C 132.640625 79.945312 132.726562 79.34375 132.789062 78.738281 C 132.847656 78.132812 132.878906 77.523438 132.878906 76.914062 L 132.878906 59.15625 L 161.207031 59.15625 C 162.261719 59.15625 163.308594 59.246094 164.347656 59.421875 C 165.386719 59.601562 166.40625 59.867188 167.398438 60.21875 C 168.394531 60.570312 169.351562 61.003906 170.273438 61.519531 C 171.191406 62.035156 172.0625 62.625 172.882812 63.289062 C 173.703125 63.953125 174.460938 64.683594 175.15625 65.476562 C 175.851562 66.269531 176.476562 67.117188 177.027344 68.015625 C 177.582031 68.917969 178.050781 69.859375 178.445312 70.839844 C 178.835938 71.820312 179.140625 72.824219 179.359375 73.859375 Z M 179.359375 73.859375 "/><path style=" stroke:none;fill-rule:nonzero;fill:#72c1e8;fill-opacity:1;" d="M 132.878906 30.789062 L 132.878906 76.914062 C 132.878906 77.523438 132.847656 78.132812 132.789062 78.738281 C 132.730469 79.34375 132.640625 79.945312 132.519531 80.542969 C 132.402344 81.136719 132.253906 81.726562 132.078125 82.3125 C 131.902344 82.894531 131.699219 83.464844 131.464844 84.027344 C 131.230469 84.589844 130.972656 85.140625 130.6875 85.675781 C 130.398438 86.214844 130.085938 86.734375 129.75 87.242188 C 129.410156 87.746094 129.050781 88.234375 128.664062 88.707031 C 128.277344 89.175781 127.871094 89.628906 127.441406 90.058594 C 127.011719 90.488281 126.5625 90.894531 126.09375 91.28125 C 125.621094 91.667969 125.132812 92.03125 124.628906 92.367188 C 124.125 92.707031 123.601562 93.019531 123.066406 93.308594 C 122.53125 93.59375 121.980469 93.855469 121.421875 94.085938 C 120.859375 94.320312 120.285156 94.523438 119.707031 94.699219 C 119.125 94.878906 118.535156 95.027344 117.9375 95.144531 C 117.34375 95.261719 116.742188 95.351562 116.136719 95.410156 C 115.53125 95.472656 114.925781 95.5 114.316406 95.5 L 78.851562 95.5 C 78.242188 95.5 77.636719 95.53125 77.03125 95.589844 C 76.425781 95.652344 75.828125 95.738281 75.230469 95.859375 C 74.636719 95.976562 74.046875 96.125 73.464844 96.300781 C 72.882812 96.476562 72.3125 96.683594 71.75 96.914062 C 71.1875 97.148438 70.640625 97.410156 70.101562 97.695312 C 69.566406 97.980469 69.046875 98.292969 68.542969 98.632812 C 68.035156 98.972656 67.546875 99.332031 67.078125 99.71875 C 66.609375 100.105469 66.160156 100.511719 65.730469 100.945312 C 65.300781 101.375 64.890625 101.824219 64.507812 102.296875 C 64.121094 102.765625 63.757812 103.253906 63.421875 103.757812 C 63.082031 104.265625 62.769531 104.785156 62.484375 105.324219 C 62.199219 105.859375 61.9375 106.410156 61.707031 106.972656 C 61.472656 107.535156 61.269531 108.105469 61.09375 108.6875 C 60.914062 109.273438 60.769531 109.863281 60.648438 110.457031 C 60.53125 111.054688 60.441406 111.65625 60.382812 112.261719 C 60.320312 112.867188 60.292969 113.476562 60.292969 114.082031 L 60.292969 131.839844 L 31.960938 131.839844 C 30.921875 131.84375 29.890625 131.757812 28.867188 131.582031 C 27.84375 131.410156 26.84375 131.152344 25.863281 130.8125 C 24.882812 130.472656 23.9375 130.050781 23.027344 129.550781 C 22.117188 129.050781 21.253906 128.476562 20.441406 127.832031 C 19.625 127.1875 18.871094 126.480469 18.175781 125.707031 C 17.480469 124.933594 16.855469 124.109375 16.300781 123.234375 C 15.742188 122.355469 15.261719 121.4375 14.859375 120.480469 C 14.457031 119.523438 14.136719 118.539062 13.898438 117.527344 C 12.164062 110.285156 11.296875 102.945312 11.296875 95.5 C 11.296875 88.054688 12.164062 80.714844 13.898438 73.472656 C 14.136719 72.460938 14.457031 71.476562 14.859375 70.519531 C 15.261719 69.5625 15.742188 68.644531 16.300781 67.765625 C 16.855469 66.890625 17.480469 66.0625 18.175781 65.292969 C 18.871094 64.519531 19.625 63.8125 20.441406 63.167969 C 21.253906 62.523438 22.117188 61.949219 23.027344 61.449219 C 23.9375 60.949219 24.882812 60.527344 25.863281 60.1875 C 26.84375 59.847656 27.84375 59.589844 28.867188 59.417969 C 29.890625 59.242188 30.921875 59.15625 31.960938 59.15625 L 60.292969 59.15625 L 60.292969 30.789062 C 60.292969 29.730469 60.378906 28.683594 60.558594 27.640625 C 60.738281 26.601562 61 25.582031 61.351562 24.585938 C 61.703125 23.589844 62.136719 22.632812 62.652344 21.710938 C 63.167969 20.789062 63.757812 19.917969 64.417969 19.097656 C 65.082031 18.273438 65.808594 17.515625 66.601562 16.820312 C 67.394531 16.121094 68.242188 15.496094 69.140625 14.945312 C 70.039062 14.394531 70.976562 13.921875 71.957031 13.527344 C 72.9375 13.136719 73.941406 12.832031 74.972656 12.609375 C 82.066406 10.9375 89.253906 10.097656 96.539062 10.09375 C 103.824219 10.09375 111.015625 10.925781 118.109375 12.589844 C 127.519531 14.800781 132.878906 22.585938 132.878906 30.789062 Z M 132.878906 30.789062 "/><path style=" stroke:none;fill-rule:nonzero;fill:#ffffff;fill-opacity:1;" d="M 86.875 33.957031 C 87.023438 34.3125 87.132812 34.675781 87.207031 35.046875 C 87.28125 35.421875 87.320312 35.800781 87.320312 36.183594 C 87.320312 36.5625 87.28125 36.941406 87.207031 37.316406 C 87.132812 37.6875 87.023438 38.050781 86.878906 38.40625 C 86.730469 38.757812 86.554688 39.09375 86.34375 39.410156 C 86.128906 39.726562 85.890625 40.019531 85.621094 40.289062 C 85.351562 40.558594 85.058594 40.800781 84.742188 41.011719 C 84.425781 41.226562 84.089844 41.402344 83.738281 41.550781 C 83.386719 41.695312 83.023438 41.804688 82.652344 41.878906 C 82.277344 41.957031 81.898438 41.992188 81.519531 41.992188 C 81.136719 41.992188 80.761719 41.957031 80.386719 41.882812 C 80.011719 41.808594 79.652344 41.695312 79.300781 41.550781 C 78.945312 41.40625 78.613281 41.226562 78.296875 41.015625 C 77.980469 40.800781 77.6875 40.5625 77.417969 40.292969 C 77.148438 40.023438 76.90625 39.730469 76.695312 39.410156 C 76.484375 39.09375 76.304688 38.761719 76.160156 38.40625 C 76.011719 38.054688 75.902344 37.691406 75.828125 37.316406 C 75.753906 36.945312 75.714844 36.566406 75.714844 36.183594 C 75.714844 35.804688 75.753906 35.425781 75.828125 35.050781 C 75.902344 34.675781 76.011719 34.3125 76.15625 33.960938 C 76.304688 33.609375 76.480469 33.273438 76.691406 32.957031 C 76.90625 32.640625 77.144531 32.347656 77.414062 32.078125 C 77.683594 31.808594 77.976562 31.566406 78.292969 31.355469 C 78.609375 31.140625 78.945312 30.960938 79.296875 30.816406 C 79.648438 30.671875 80.011719 30.558594 80.382812 30.484375 C 80.757812 30.410156 81.136719 30.375 81.515625 30.375 C 81.898438 30.375 82.273438 30.410156 82.648438 30.484375 C 83.023438 30.558594 83.382812 30.667969 83.738281 30.816406 C 84.089844 30.960938 84.421875 31.140625 84.738281 31.351562 C 85.054688 31.5625 85.347656 31.804688 85.617188 32.074219 C 85.886719 32.34375 86.128906 32.636719 86.339844 32.953125 C 86.550781 33.273438 86.730469 33.605469 86.875 33.957031 Z M 86.875 33.957031 "/><path style=" stroke:none;fill-rule:nonzero;fill:#ffffff;fill-opacity:1;" d="M 117.46875 154.796875 C 117.46875 155.179688 117.433594 155.558594 117.359375 155.933594 C 117.285156 156.304688 117.175781 156.667969 117.027344 157.019531 C 116.882812 157.375 116.703125 157.707031 116.492188 158.027344 C 116.28125 158.34375 116.039062 158.636719 115.769531 158.90625 C 115.5 159.175781 115.207031 159.417969 114.890625 159.628906 C 114.574219 159.839844 114.242188 160.019531 113.890625 160.164062 C 113.539062 160.3125 113.175781 160.421875 112.800781 160.496094 C 112.429688 160.570312 112.050781 160.605469 111.671875 160.605469 C 111.289062 160.605469 110.910156 160.570312 110.539062 160.496094 C 110.164062 160.421875 109.800781 160.3125 109.449219 160.164062 C 109.097656 160.019531 108.765625 159.839844 108.449219 159.628906 C 108.132812 159.417969 107.839844 159.175781 107.570312 158.90625 C 107.300781 158.636719 107.058594 158.34375 106.847656 158.027344 C 106.636719 157.707031 106.457031 157.375 106.3125 157.019531 C 106.164062 156.667969 106.054688 156.304688 105.980469 155.933594 C 105.90625 155.558594 105.871094 155.179688 105.871094 154.796875 C 105.871094 154.417969 105.90625 154.039062 105.980469 153.664062 C 106.054688 153.292969 106.164062 152.929688 106.3125 152.574219 C 106.457031 152.222656 106.636719 151.890625 106.847656 151.570312 C 107.058594 151.253906 107.300781 150.960938 107.570312 150.691406 C 107.839844 150.421875 108.132812 150.179688 108.449219 149.96875 C 108.765625 149.757812 109.097656 149.578125 109.449219 149.433594 C 109.800781 149.285156 110.164062 149.175781 110.539062 149.101562 C 110.910156 149.027344 111.289062 148.992188 111.671875 148.992188 C 112.050781 148.992188 112.429688 149.027344 112.800781 149.101562 C 113.175781 149.175781 113.539062 149.285156 113.890625 149.433594 C 114.242188 149.578125 114.574219 149.757812 114.890625 149.96875 C 115.207031 150.179688 115.5 150.421875 115.769531 150.691406 C 116.039062 150.960938 116.28125 151.253906 116.492188 151.570312 C 116.703125 151.890625 116.882812 152.222656 117.027344 152.574219 C 117.175781 152.929688 117.285156 153.292969 117.359375 153.664062 C 117.433594 154.039062 117.46875 154.417969 117.46875 154.796875 Z M 117.46875 154.796875 "/><path style=" stroke:none;fill-rule:nonzero;fill:#f9e5af;fill-opacity:1;" d="M 125.550781 162.332031 C 125.320312 162.332031 125.101562 162.289062 124.890625 162.203125 C 124.679688 162.113281 124.492188 161.988281 124.332031 161.828125 C 124.167969 161.664062 124.042969 161.480469 123.957031 161.265625 C 123.871094 161.054688 123.824219 160.835938 123.824219 160.605469 L 123.824219 157.253906 C 123.824219 157.027344 123.871094 156.804688 123.957031 156.59375 C 124.042969 156.382812 124.167969 156.195312 124.332031 156.035156 C 124.492188 155.871094 124.679688 155.746094 124.890625 155.660156 C 125.101562 155.570312 125.320312 155.527344 125.550781 155.527344 C 125.777344 155.527344 126 155.570312 126.210938 155.660156 C 126.421875 155.746094 126.609375 155.871094 126.769531 156.035156 C 126.929688 156.195312 127.054688 156.382812 127.144531 156.59375 C 127.230469 156.804688 127.273438 157.027344 127.273438 157.253906 L 127.273438 160.605469 C 127.273438 160.835938 127.230469 161.054688 127.144531 161.265625 C 127.054688 161.480469 126.929688 161.664062 126.769531 161.828125 C 126.609375 161.988281 126.421875 162.113281 126.210938 162.203125 C 126 162.289062 125.777344 162.332031 125.550781 162.332031 Z M 125.550781 152.074219 C 125.320312 152.074219 125.101562 152.03125 124.890625 151.945312 C 124.679688 151.855469 124.492188 151.730469 124.332031 151.570312 C 124.167969 151.40625 124.042969 151.21875 123.957031 151.007812 C 123.871094 150.796875 123.824219 150.578125 123.824219 150.347656 L 123.824219 122.175781 C 123.824219 121.945312 123.871094 121.726562 123.957031 121.515625 C 124.042969 121.304688 124.167969 121.117188 124.332031 120.953125 C 124.492188 120.792969 124.679688 120.667969 124.890625 120.582031 C 125.101562 120.492188 125.320312 120.449219 125.550781 120.449219 L 161.203125 120.449219 C 162.015625 120.453125 162.800781 120.320312 163.566406 120.058594 C 164.332031 119.792969 165.03125 119.410156 165.667969 118.90625 C 166.300781 118.402344 166.835938 117.808594 167.269531 117.125 C 167.703125 116.4375 168.011719 115.699219 168.191406 114.910156 C 169.71875 108.527344 170.480469 102.054688 170.480469 95.492188 C 170.480469 88.925781 169.71875 82.453125 168.191406 76.070312 C 168.007812 75.28125 167.699219 74.546875 167.265625 73.863281 C 166.832031 73.179688 166.300781 72.589844 165.664062 72.089844 C 165.03125 71.585938 164.332031 71.203125 163.566406 70.941406 C 162.804688 70.679688 162.019531 70.546875 161.210938 70.554688 C 160.980469 70.554688 160.761719 70.507812 160.550781 70.421875 C 160.339844 70.332031 160.152344 70.210938 159.992188 70.046875 C 159.828125 69.886719 159.703125 69.699219 159.617188 69.488281 C 159.53125 69.277344 159.484375 69.054688 159.484375 68.828125 C 159.484375 68.597656 159.53125 68.378906 159.617188 68.164062 C 159.703125 67.953125 159.828125 67.765625 159.992188 67.605469 C 160.152344 67.445312 160.339844 67.320312 160.550781 67.230469 C 160.761719 67.144531 160.980469 67.101562 161.210938 67.101562 C 165.847656 67.101562 170.3125 70.027344 171.632812 75.644531 C 173.179688 82.230469 173.941406 88.910156 173.929688 95.675781 C 173.914062 102.441406 173.125 109.117188 171.554688 115.699219 C 171.417969 116.277344 171.238281 116.84375 171.007812 117.394531 C 170.777344 117.945312 170.503906 118.46875 170.1875 118.972656 C 169.867188 119.476562 169.511719 119.949219 169.113281 120.394531 C 168.714844 120.835938 168.28125 121.242188 167.816406 121.613281 C 167.347656 121.984375 166.855469 122.3125 166.332031 122.597656 C 165.8125 122.882812 165.269531 123.125 164.707031 123.320312 C 164.144531 123.515625 163.570312 123.660156 162.980469 123.757812 C 162.394531 123.855469 161.804688 123.902344 161.207031 123.902344 L 127.277344 123.902344 L 127.277344 150.347656 C 127.277344 150.578125 127.234375 150.796875 127.144531 151.007812 C 127.058594 151.222656 126.933594 151.40625 126.773438 151.570312 C 126.609375 151.730469 126.421875 151.855469 126.210938 151.945312 C 126 152.03125 125.777344 152.074219 125.550781 152.074219 Z M 125.550781 152.074219 "/><path style=" stroke:none;fill-rule:nonzero;fill:#c5e5ff;fill-opacity:1;" d="M 50.636719 123.902344 C 50.410156 123.902344 50.1875 123.859375 49.976562 123.769531 C 49.765625 123.683594 49.578125 123.558594 49.417969 123.394531 C 49.257812 123.234375 49.132812 123.046875 49.042969 122.835938 C 48.957031 122.625 48.914062 122.40625 48.914062 122.175781 L 48.914062 119.082031 C 48.914062 118.851562 48.957031 118.632812 49.042969 118.421875 C 49.132812 118.207031 49.257812 118.023438 49.417969 117.859375 C 49.578125 117.699219 49.765625 117.574219 49.976562 117.484375 C 50.1875 117.398438 50.410156 117.355469 50.636719 117.355469 C 50.867188 117.355469 51.085938 117.398438 51.296875 117.484375 C 51.507812 117.574219 51.695312 117.699219 51.855469 117.859375 C 52.019531 118.023438 52.140625 118.207031 52.230469 118.421875 C 52.316406 118.632812 52.359375 118.851562 52.359375 119.082031 L 52.359375 122.175781 C 52.359375 122.40625 52.316406 122.625 52.230469 122.835938 C 52.140625 123.046875 52.019531 123.234375 51.855469 123.394531 C 51.695312 123.558594 51.507812 123.683594 51.296875 123.769531 C 51.085938 123.859375 50.867188 123.902344 50.636719 123.902344 Z M 50.585938 113.898438 C 50.359375 113.882812 50.140625 113.824219 49.9375 113.722656 C 49.730469 113.621094 49.554688 113.484375 49.402344 113.3125 C 49.253906 113.140625 49.140625 112.945312 49.066406 112.730469 C 48.996094 112.511719 48.964844 112.289062 48.980469 112.0625 C 49.046875 111.125 49.15625 110.191406 49.308594 109.265625 C 49.460938 108.339844 49.65625 107.421875 49.894531 106.515625 C 50.132812 105.605469 50.414062 104.710938 50.734375 103.828125 C 51.058594 102.949219 51.421875 102.082031 51.824219 101.234375 C 52.226562 100.386719 52.667969 99.558594 53.148438 98.753906 C 53.628906 97.945312 54.148438 97.164062 54.699219 96.40625 C 55.253906 95.648438 55.84375 94.917969 56.464844 94.214844 C 57.085938 93.515625 57.742188 92.84375 58.425781 92.199219 C 59.109375 91.558594 59.824219 90.953125 60.566406 90.378906 C 61.308594 89.804688 62.074219 89.265625 62.867188 88.761719 C 63.660156 88.261719 64.476562 87.796875 65.3125 87.371094 C 66.144531 86.945312 67 86.558594 67.871094 86.214844 C 68.746094 85.867188 69.628906 85.566406 70.53125 85.300781 C 71.429688 85.039062 72.34375 84.820312 73.261719 84.644531 C 74.183594 84.464844 75.109375 84.332031 76.042969 84.242188 C 76.976562 84.152344 77.914062 84.109375 78.851562 84.105469 L 114.316406 84.105469 C 114.789062 84.105469 115.257812 84.058594 115.71875 83.964844 C 116.179688 83.875 116.628906 83.738281 117.066406 83.554688 C 117.5 83.375 117.914062 83.152344 118.304688 82.890625 C 118.695312 82.628906 119.058594 82.332031 119.394531 81.996094 C 119.726562 81.664062 120.023438 81.300781 120.285156 80.910156 C 120.546875 80.515625 120.769531 80.101562 120.949219 79.664062 C 121.128906 79.230469 121.265625 78.78125 121.359375 78.316406 C 121.453125 77.855469 121.496094 77.386719 121.5 76.914062 L 121.5 30.789062 C 121.5 29.980469 121.371094 29.191406 121.109375 28.425781 C 120.84375 27.660156 120.460938 26.957031 119.957031 26.324219 C 119.457031 25.6875 118.863281 25.152344 118.179688 24.71875 C 117.496094 24.285156 116.761719 23.976562 115.972656 23.792969 L 115.507812 23.683594 C 115.289062 23.628906 115.085938 23.535156 114.902344 23.398438 C 114.71875 23.265625 114.570312 23.101562 114.449219 22.90625 C 114.332031 22.714844 114.253906 22.503906 114.21875 22.28125 C 114.183594 22.054688 114.191406 21.832031 114.242188 21.613281 C 114.292969 21.390625 114.386719 21.1875 114.515625 21.003906 C 114.648438 20.816406 114.8125 20.664062 115.003906 20.542969 C 115.195312 20.421875 115.402344 20.34375 115.628906 20.304688 C 115.851562 20.265625 116.074219 20.269531 116.296875 20.320312 L 116.757812 20.429688 C 117.339844 20.5625 117.902344 20.746094 118.453125 20.976562 C 119 21.207031 119.527344 21.480469 120.027344 21.796875 C 120.53125 22.117188 121.003906 22.476562 121.445312 22.875 C 121.890625 23.273438 122.292969 23.707031 122.664062 24.171875 C 123.03125 24.640625 123.359375 25.136719 123.648438 25.65625 C 123.933594 26.179688 124.171875 26.722656 124.367188 27.285156 C 124.5625 27.847656 124.707031 28.425781 124.804688 29.011719 C 124.902344 29.601562 124.949219 30.191406 124.945312 30.789062 L 124.945312 76.914062 C 124.945312 77.613281 124.878906 78.304688 124.742188 78.988281 C 124.605469 79.675781 124.402344 80.339844 124.132812 80.984375 C 123.867188 81.628906 123.539062 82.242188 123.152344 82.824219 C 122.765625 83.40625 122.324219 83.941406 121.832031 84.4375 C 121.335938 84.929688 120.800781 85.371094 120.21875 85.757812 C 119.640625 86.148438 119.027344 86.476562 118.382812 86.742188 C 117.738281 87.011719 117.074219 87.214844 116.390625 87.351562 C 115.707031 87.488281 115.015625 87.554688 114.316406 87.554688 L 78.851562 87.554688 C 78.023438 87.558594 77.195312 87.597656 76.367188 87.679688 C 75.542969 87.757812 74.722656 87.875 73.90625 88.03125 C 73.09375 88.1875 72.285156 88.382812 71.488281 88.617188 C 70.691406 88.847656 69.910156 89.117188 69.136719 89.421875 C 68.367188 89.726562 67.609375 90.070312 66.871094 90.445312 C 66.132812 90.824219 65.410156 91.234375 64.710938 91.675781 C 64.007812 92.121094 63.328125 92.597656 62.671875 93.105469 C 62.015625 93.613281 61.386719 94.152344 60.777344 94.71875 C 60.171875 95.285156 59.59375 95.878906 59.042969 96.503906 C 58.492188 97.125 57.972656 97.769531 57.484375 98.441406 C 56.992188 99.109375 56.535156 99.800781 56.109375 100.515625 C 55.683594 101.230469 55.292969 101.960938 54.9375 102.710938 C 54.582031 103.460938 54.257812 104.226562 53.972656 105.007812 C 53.6875 105.785156 53.441406 106.578125 53.230469 107.382812 C 53.019531 108.1875 52.84375 108.996094 52.710938 109.816406 C 52.574219 110.636719 52.480469 111.460938 52.421875 112.289062 C 52.40625 112.519531 52.347656 112.734375 52.246094 112.941406 C 52.144531 113.148438 52.007812 113.324219 51.835938 113.476562 C 51.664062 113.625 51.46875 113.738281 51.253906 113.8125 C 51.035156 113.886719 50.8125 113.914062 50.585938 113.898438 Z M 50.585938 113.898438 "/><path style=" stroke:none;fill-rule:nonzero;fill:#000000;fill-opacity:1;" d="M 180.945312 73.070312 C 180.683594 71.964844 180.332031 70.890625 179.890625 69.84375 C 179.449219 68.796875 178.925781 67.796875 178.316406 66.839844 C 177.707031 65.882812 177.023438 64.980469 176.265625 64.136719 C 175.503906 63.296875 174.679688 62.519531 173.789062 61.816406 C 172.902344 61.113281 171.960938 60.484375 170.964844 59.941406 C 169.972656 59.394531 168.941406 58.933594 167.871094 58.558594 C 166.796875 58.1875 165.703125 57.90625 164.585938 57.714844 C 163.46875 57.523438 162.34375 57.429688 161.207031 57.429688 L 134.59375 57.429688 L 134.59375 49.4375 C 134.582031 49.21875 134.527344 49.011719 134.4375 48.8125 C 134.34375 48.613281 134.21875 48.4375 134.058594 48.285156 C 133.898438 48.136719 133.71875 48.019531 133.515625 47.9375 C 133.3125 47.855469 133.101562 47.816406 132.878906 47.8125 C 132.660156 47.8125 132.449219 47.851562 132.246094 47.933594 C 132.042969 48.011719 131.859375 48.128906 131.699219 48.277344 C 131.539062 48.425781 131.410156 48.601562 131.316406 48.796875 C 131.222656 48.996094 131.167969 49.207031 131.152344 49.425781 C 131.148438 49.429688 131.148438 49.433594 131.148438 49.4375 L 131.148438 76.917969 C 131.144531 77.46875 131.117188 78.019531 131.058594 78.566406 C 131.003906 79.117188 130.921875 79.660156 130.8125 80.203125 C 130.703125 80.742188 130.570312 81.277344 130.40625 81.804688 C 130.246094 82.332031 130.058594 82.851562 129.847656 83.359375 C 129.636719 83.867188 129.402344 84.367188 129.140625 84.851562 C 128.878906 85.339844 128.597656 85.808594 128.289062 86.269531 C 127.984375 86.726562 127.65625 87.167969 127.304688 87.59375 C 126.957031 88.023438 126.585938 88.429688 126.199219 88.820312 C 125.808594 89.210938 125.402344 89.578125 124.976562 89.929688 C 124.550781 90.28125 124.109375 90.609375 123.648438 90.914062 C 123.191406 91.222656 122.722656 91.507812 122.234375 91.765625 C 121.75 92.027344 121.253906 92.265625 120.746094 92.476562 C 120.234375 92.6875 119.71875 92.875 119.191406 93.035156 C 118.664062 93.195312 118.132812 93.332031 117.59375 93.441406 C 117.050781 93.550781 116.507812 93.632812 115.960938 93.6875 C 115.414062 93.746094 114.863281 93.773438 114.3125 93.777344 L 78.851562 93.777344 C 78.1875 93.773438 77.523438 93.808594 76.863281 93.871094 C 76.199219 93.9375 75.542969 94.035156 74.890625 94.164062 C 74.242188 94.292969 73.597656 94.453125 72.960938 94.648438 C 72.324219 94.839844 71.699219 95.0625 71.085938 95.316406 C 70.472656 95.570312 69.871094 95.855469 69.285156 96.167969 C 68.699219 96.484375 68.128906 96.824219 67.578125 97.195312 C 67.027344 97.5625 66.492188 97.960938 65.980469 98.382812 C 65.464844 98.804688 64.972656 99.25 64.503906 99.71875 C 64.035156 100.191406 63.589844 100.683594 63.167969 101.195312 C 62.746094 101.710938 62.351562 102.246094 61.980469 102.796875 C 61.613281 103.351562 61.269531 103.921875 60.957031 104.507812 C 60.644531 105.097656 60.359375 105.695312 60.105469 106.3125 C 59.851562 106.925781 59.628906 107.550781 59.4375 108.1875 C 59.246094 108.824219 59.082031 109.46875 58.953125 110.121094 C 58.824219 110.777344 58.726562 111.433594 58.664062 112.09375 C 58.597656 112.757812 58.566406 113.421875 58.566406 114.085938 L 58.566406 130.117188 L 31.964844 130.117188 C 31.019531 130.121094 30.085938 130.042969 29.15625 129.890625 C 28.226562 129.738281 27.316406 129.503906 26.425781 129.195312 C 25.535156 128.890625 24.675781 128.507812 23.847656 128.054688 C 23.023438 127.601562 22.238281 127.082031 21.5 126.496094 C 20.761719 125.910156 20.074219 125.269531 19.445312 124.566406 C 18.816406 123.867188 18.246094 123.117188 17.742188 122.320312 C 17.238281 121.523438 16.804688 120.6875 16.441406 119.816406 C 16.078125 118.945312 15.789062 118.050781 15.578125 117.132812 C 14.609375 113.085938 13.914062 108.996094 13.496094 104.859375 C 13.472656 104.632812 13.40625 104.417969 13.296875 104.214844 C 13.1875 104.011719 13.042969 103.839844 12.867188 103.695312 C 12.691406 103.550781 12.492188 103.445312 12.273438 103.378906 C 12.050781 103.3125 11.828125 103.292969 11.601562 103.316406 C 11.375 103.339844 11.160156 103.40625 10.957031 103.515625 C 10.757812 103.625 10.582031 103.765625 10.4375 103.945312 C 10.292969 104.121094 10.1875 104.320312 10.125 104.539062 C 10.058594 104.761719 10.035156 104.984375 10.058594 105.210938 C 10.496094 109.5 11.214844 113.734375 12.21875 117.925781 C 12.480469 119.03125 12.828125 120.109375 13.269531 121.15625 C 13.710938 122.203125 14.238281 123.203125 14.84375 124.164062 C 15.453125 125.121094 16.140625 126.019531 16.898438 126.863281 C 17.660156 127.707031 18.484375 128.480469 19.375 129.1875 C 20.261719 129.890625 21.207031 130.519531 22.199219 131.0625 C 23.195312 131.609375 24.226562 132.070312 25.296875 132.441406 C 26.371094 132.816406 27.464844 133.097656 28.582031 133.285156 C 29.703125 133.476562 30.828125 133.570312 31.964844 133.570312 L 58.570312 133.570312 L 58.570312 160.210938 C 58.570312 161.367188 58.667969 162.511719 58.859375 163.644531 C 59.054688 164.78125 59.34375 165.894531 59.726562 166.980469 C 60.109375 168.070312 60.582031 169.117188 61.144531 170.121094 C 61.707031 171.128906 62.347656 172.082031 63.070312 172.976562 C 63.792969 173.875 64.589844 174.703125 65.453125 175.464844 C 66.316406 176.226562 67.238281 176.910156 68.21875 177.515625 C 69.199219 178.121094 70.226562 178.636719 71.292969 179.066406 C 72.363281 179.496094 73.457031 179.832031 74.582031 180.074219 C 77.808594 180.59375 94.335938 185.578125 118.714844 180.046875 C 119.832031 179.796875 120.921875 179.457031 121.984375 179.023438 C 123.042969 178.589844 124.0625 178.070312 125.035156 177.460938 C 126.007812 176.855469 126.921875 176.171875 127.777344 175.410156 C 128.636719 174.648438 129.421875 173.820312 130.140625 172.925781 C 130.855469 172.03125 131.492188 171.082031 132.050781 170.078125 C 132.605469 169.074219 133.074219 168.03125 133.457031 166.949219 C 133.835938 165.867188 134.121094 164.761719 134.316406 163.628906 C 134.507812 162.5 134.605469 161.359375 134.605469 160.210938 L 134.605469 133.570312 L 142.886719 133.570312 C 143.117188 133.570312 143.335938 133.523438 143.546875 133.4375 C 143.757812 133.347656 143.945312 133.226562 144.105469 133.0625 C 144.269531 132.902344 144.390625 132.714844 144.480469 132.503906 C 144.566406 132.292969 144.609375 132.070312 144.609375 131.84375 C 144.609375 131.613281 144.566406 131.394531 144.480469 131.179688 C 144.390625 130.96875 144.269531 130.78125 144.105469 130.621094 C 143.945312 130.460938 143.757812 130.335938 143.546875 130.246094 C 143.335938 130.160156 143.117188 130.117188 142.886719 130.117188 L 96.582031 130.117188 C 96.355469 130.117188 96.136719 130.160156 95.925781 130.246094 C 95.710938 130.335938 95.527344 130.460938 95.363281 130.621094 C 95.203125 130.78125 95.078125 130.96875 94.992188 131.179688 C 94.902344 131.394531 94.859375 131.613281 94.859375 131.84375 C 94.859375 132.070312 94.902344 132.292969 94.992188 132.503906 C 95.078125 132.714844 95.203125 132.902344 95.363281 133.0625 C 95.527344 133.226562 95.710938 133.347656 95.925781 133.4375 C 96.136719 133.523438 96.355469 133.570312 96.582031 133.570312 L 131.152344 133.570312 L 131.152344 160.210938 C 131.15625 161.175781 131.078125 162.128906 130.921875 163.078125 C 130.761719 164.027344 130.519531 164.953125 130.203125 165.859375 C 129.882812 166.765625 129.488281 167.640625 129.019531 168.480469 C 128.550781 169.320312 128.011719 170.113281 127.40625 170.859375 C 126.800781 171.605469 126.136719 172.292969 125.414062 172.925781 C 124.691406 173.558594 123.917969 174.125 123.097656 174.625 C 122.277344 175.125 121.417969 175.546875 120.527344 175.898438 C 119.632812 176.25 118.714844 176.523438 117.773438 176.71875 C 110.808594 178.351562 103.75 179.171875 96.59375 179.171875 C 89.441406 179.171875 82.382812 178.355469 75.414062 176.726562 C 66.6875 174.652344 62.015625 167.566406 62.015625 160.210938 L 62.015625 114.082031 C 62.015625 113.53125 62.046875 112.980469 62.101562 112.433594 C 62.15625 111.882812 62.238281 111.339844 62.347656 110.796875 C 62.457031 110.257812 62.589844 109.722656 62.753906 109.195312 C 62.914062 108.667969 63.101562 108.148438 63.3125 107.640625 C 63.523438 107.132812 63.757812 106.632812 64.019531 106.148438 C 64.28125 105.660156 64.5625 105.1875 64.871094 104.730469 C 65.175781 104.273438 65.503906 103.828125 65.851562 103.402344 C 66.203125 102.976562 66.574219 102.570312 66.960938 102.179688 C 67.351562 101.789062 67.757812 101.417969 68.183594 101.070312 C 68.609375 100.71875 69.050781 100.390625 69.511719 100.082031 C 69.96875 99.777344 70.441406 99.492188 70.925781 99.230469 C 71.410156 98.972656 71.90625 98.734375 72.417969 98.523438 C 72.925781 98.3125 73.441406 98.125 73.96875 97.964844 C 74.496094 97.800781 75.03125 97.667969 75.570312 97.558594 C 76.109375 97.449219 76.652344 97.367188 77.203125 97.3125 C 77.75 97.257812 78.300781 97.226562 78.851562 97.226562 L 114.320312 97.226562 C 114.984375 97.226562 115.644531 97.191406 116.308594 97.128906 C 116.96875 97.0625 117.625 96.964844 118.277344 96.835938 C 118.925781 96.703125 119.570312 96.542969 120.207031 96.351562 C 120.839844 96.15625 121.464844 95.933594 122.078125 95.679688 C 122.695312 95.421875 123.292969 95.140625 123.878906 94.824219 C 124.464844 94.511719 125.035156 94.171875 125.585938 93.800781 C 126.136719 93.429688 126.671875 93.035156 127.183594 92.613281 C 127.699219 92.191406 128.1875 91.746094 128.660156 91.273438 C 129.128906 90.804688 129.574219 90.3125 129.996094 89.796875 C 130.417969 89.285156 130.8125 88.75 131.179688 88.199219 C 131.550781 87.644531 131.890625 87.074219 132.203125 86.488281 C 132.519531 85.902344 132.800781 85.300781 133.054688 84.6875 C 133.308594 84.070312 133.535156 83.445312 133.726562 82.808594 C 133.917969 82.171875 134.082031 81.527344 134.210938 80.875 C 134.339844 80.222656 134.4375 79.566406 134.503906 78.90625 C 134.570312 78.242188 134.601562 77.578125 134.601562 76.914062 L 134.601562 60.882812 L 161.207031 60.882812 C 162.15625 60.878906 163.097656 60.953125 164.035156 61.113281 C 164.972656 61.269531 165.886719 61.503906 166.78125 61.816406 C 167.679688 62.128906 168.542969 62.515625 169.371094 62.976562 C 170.203125 63.433594 170.988281 63.960938 171.730469 64.554688 C 172.46875 65.148438 173.15625 65.800781 173.785156 66.507812 C 174.417969 67.21875 174.984375 67.976562 175.484375 68.785156 C 175.988281 69.589844 176.417969 70.433594 176.777344 71.3125 C 177.132812 72.191406 177.417969 73.097656 177.621094 74.023438 C 177.644531 74.101562 177.664062 74.179688 177.675781 74.257812 C 181.183594 89.175781 180.726562 104.992188 177.585938 117.125 C 177.375 118.042969 177.085938 118.941406 176.722656 119.8125 C 176.359375 120.683594 175.925781 121.515625 175.421875 122.3125 C 174.917969 123.113281 174.351562 123.863281 173.722656 124.5625 C 173.089844 125.265625 172.40625 125.910156 171.667969 126.496094 C 170.929688 127.082031 170.144531 127.601562 169.320312 128.054688 C 168.492188 128.507812 167.632812 128.886719 166.742188 129.195312 C 165.851562 129.503906 164.941406 129.734375 164.011719 129.890625 C 163.082031 130.042969 162.144531 130.121094 161.203125 130.117188 L 156.675781 130.117188 C 156.449219 130.117188 156.230469 130.160156 156.019531 130.246094 C 155.804688 130.335938 155.621094 130.460938 155.457031 130.621094 C 155.296875 130.78125 155.171875 130.96875 155.085938 131.179688 C 154.996094 131.394531 154.953125 131.613281 154.953125 131.84375 C 154.953125 132.070312 154.996094 132.292969 155.085938 132.503906 C 155.171875 132.714844 155.296875 132.902344 155.457031 133.0625 C 155.621094 133.226562 155.804688 133.347656 156.019531 133.4375 C 156.230469 133.523438 156.449219 133.570312 156.675781 133.570312 L 161.203125 133.570312 C 162.335938 133.570312 163.464844 133.476562 164.582031 133.285156 C 165.703125 133.097656 166.796875 132.816406 167.867188 132.441406 C 168.941406 132.070312 169.972656 131.609375 170.96875 131.0625 C 171.964844 130.515625 172.90625 129.886719 173.796875 129.183594 C 174.683594 128.476562 175.511719 127.703125 176.269531 126.859375 C 177.03125 126.015625 177.714844 125.113281 178.324219 124.152344 C 178.929688 123.195312 179.457031 122.191406 179.894531 121.144531 C 180.335938 120.09375 180.6875 119.019531 180.945312 117.914062 C 185.234375 99.820312 183.640625 87.757812 180.945312 73.070312 Z M 180.945312 73.070312 "/><path style=" stroke:none;fill-rule:nonzero;fill:#000000;fill-opacity:1;" d="M 151.507812 131.84375 C 151.507812 132.070312 151.464844 132.292969 151.375 132.503906 C 151.289062 132.714844 151.164062 132.902344 151.003906 133.0625 C 150.839844 133.226562 150.65625 133.347656 150.445312 133.4375 C 150.230469 133.523438 150.011719 133.570312 149.785156 133.570312 C 149.554688 133.570312 149.335938 133.523438 149.125 133.4375 C 148.914062 133.347656 148.726562 133.226562 148.566406 133.0625 C 148.402344 132.902344 148.277344 132.714844 148.191406 132.503906 C 148.101562 132.292969 148.058594 132.070312 148.058594 131.84375 C 148.058594 131.613281 148.101562 131.394531 148.191406 131.179688 C 148.277344 130.96875 148.402344 130.78125 148.566406 130.621094 C 148.726562 130.460938 148.914062 130.335938 149.125 130.246094 C 149.335938 130.160156 149.554688 130.117188 149.785156 130.117188 C 150.011719 130.117188 150.230469 130.160156 150.445312 130.246094 C 150.65625 130.335938 150.839844 130.460938 151.003906 130.621094 C 151.164062 130.78125 151.289062 130.96875 151.375 131.179688 C 151.464844 131.394531 151.507812 131.613281 151.507812 131.84375 Z M 151.507812 131.84375 "/><path style=" stroke:none;fill-rule:nonzero;fill:#000000;fill-opacity:1;" d="M 132.878906 40.804688 C 132.648438 40.804688 132.429688 40.847656 132.214844 40.933594 C 132.003906 41.019531 131.816406 41.144531 131.65625 41.308594 C 131.492188 41.46875 131.367188 41.65625 131.28125 41.867188 C 131.191406 42.078125 131.148438 42.296875 131.148438 42.527344 C 131.144531 42.757812 131.1875 42.976562 131.277344 43.1875 C 131.363281 43.402344 131.488281 43.589844 131.648438 43.75 C 131.808594 43.914062 131.996094 44.039062 132.207031 44.125 C 132.417969 44.214844 132.640625 44.257812 132.867188 44.257812 C 133.097656 44.257812 133.316406 44.214844 133.527344 44.128906 C 133.742188 44.039062 133.925781 43.914062 134.089844 43.753906 C 134.25 43.589844 134.375 43.40625 134.464844 43.191406 C 134.550781 42.980469 134.59375 42.761719 134.59375 42.53125 C 134.59375 42.304688 134.550781 42.085938 134.460938 41.875 C 134.375 41.664062 134.25 41.476562 134.089844 41.316406 C 133.929688 41.152344 133.746094 41.027344 133.535156 40.941406 C 133.324219 40.851562 133.105469 40.808594 132.878906 40.804688 Z M 132.878906 40.804688 "/><g clip-rule="nonzero" clip-path="url(#78cc7cb5a9)"><path style=" stroke:none;fill-rule:nonzero;fill:#000000;fill-opacity:1;" d="M 11.390625 92.96875 C 11.613281 92.96875 11.824219 92.925781 12.03125 92.84375 C 12.234375 92.761719 12.417969 92.644531 12.578125 92.492188 C 12.738281 92.339844 12.867188 92.164062 12.957031 91.964844 C 13.050781 91.761719 13.101562 91.550781 13.113281 91.332031 L 13.113281 91.316406 C 13.382812 85.421875 14.203125 79.609375 15.578125 73.871094 C 15.789062 72.953125 16.078125 72.058594 16.441406 71.1875 C 16.804688 70.316406 17.238281 69.480469 17.742188 68.683594 C 18.246094 67.886719 18.8125 67.136719 19.445312 66.433594 C 20.074219 65.730469 20.757812 65.089844 21.496094 64.503906 C 22.238281 63.917969 23.019531 63.398438 23.847656 62.941406 C 24.671875 62.488281 25.53125 62.109375 26.421875 61.800781 C 27.3125 61.492188 28.222656 61.261719 29.15625 61.105469 C 30.085938 60.953125 31.019531 60.878906 31.964844 60.882812 L 96.582031 60.882812 C 96.8125 60.882812 97.03125 60.835938 97.242188 60.75 C 97.453125 60.664062 97.640625 60.539062 97.804688 60.375 C 97.964844 60.214844 98.089844 60.027344 98.175781 59.816406 C 98.265625 59.605469 98.308594 59.382812 98.308594 59.15625 C 98.308594 58.925781 98.265625 58.707031 98.175781 58.496094 C 98.089844 58.28125 97.964844 58.097656 97.804688 57.933594 C 97.640625 57.773438 97.453125 57.648438 97.242188 57.558594 C 97.03125 57.472656 96.8125 57.429688 96.582031 57.429688 L 62.019531 57.429688 L 62.019531 30.792969 C 62.015625 29.832031 62.089844 28.878906 62.25 27.929688 C 62.410156 26.980469 62.648438 26.054688 62.964844 25.148438 C 63.285156 24.242188 63.675781 23.371094 64.144531 22.53125 C 64.613281 21.695312 65.148438 20.902344 65.753906 20.15625 C 66.355469 19.40625 67.019531 18.71875 67.742188 18.085938 C 68.464844 17.453125 69.234375 16.886719 70.054688 16.386719 C 70.875 15.890625 71.730469 15.464844 72.621094 15.109375 C 73.515625 14.757812 74.429688 14.484375 75.371094 14.289062 C 90.007812 10.835938 105.34375 11.1875 117.851562 14.304688 C 118.789062 14.5 119.699219 14.777344 120.589844 15.132812 C 121.480469 15.488281 122.332031 15.914062 123.144531 16.414062 C 123.960938 16.914062 124.730469 17.480469 125.449219 18.113281 C 126.167969 18.746094 126.828125 19.433594 127.429688 20.179688 C 128.027344 20.925781 128.5625 21.714844 129.027344 22.550781 C 129.492188 23.386719 129.886719 24.257812 130.203125 25.164062 C 130.519531 26.066406 130.757812 26.992188 130.917969 27.933594 C 131.074219 28.878906 131.152344 29.832031 131.148438 30.789062 L 131.148438 35.625 C 131.148438 35.851562 131.195312 36.074219 131.28125 36.285156 C 131.371094 36.496094 131.496094 36.683594 131.65625 36.84375 C 131.820312 37.003906 132.003906 37.128906 132.21875 37.21875 C 132.429688 37.304688 132.648438 37.347656 132.875 37.347656 C 133.105469 37.347656 133.324219 37.304688 133.535156 37.21875 C 133.75 37.128906 133.933594 37.003906 134.097656 36.84375 C 134.257812 36.683594 134.382812 36.496094 134.472656 36.285156 C 134.558594 36.074219 134.605469 35.851562 134.605469 35.625 L 134.597656 30.789062 C 134.597656 21.835938 128.730469 13.292969 118.5 10.90625 C 111.277344 9.214844 103.957031 8.371094 96.539062 8.375 C 89.121094 8.378906 81.800781 9.230469 74.578125 10.925781 C 73.453125 11.171875 72.355469 11.507812 71.289062 11.9375 C 70.21875 12.367188 69.195312 12.886719 68.214844 13.488281 C 67.238281 14.09375 66.316406 14.777344 65.453125 15.539062 C 64.585938 16.300781 63.792969 17.128906 63.070312 18.027344 C 62.347656 18.925781 61.707031 19.875 61.144531 20.882812 C 60.585938 21.890625 60.113281 22.933594 59.730469 24.023438 C 59.34375 25.109375 59.054688 26.21875 58.863281 27.355469 C 58.667969 28.492188 58.570312 29.636719 58.570312 30.789062 L 58.570312 57.425781 L 31.964844 57.425781 C 23.113281 57.425781 14.554688 63.21875 12.113281 73.511719 C 10.757812 79.320312 9.941406 85.203125 9.667969 91.164062 C 9.65625 91.398438 9.691406 91.625 9.773438 91.847656 C 9.859375 92.066406 9.980469 92.265625 10.144531 92.433594 C 10.304688 92.605469 10.496094 92.738281 10.710938 92.828125 C 10.929688 92.921875 11.15625 92.96875 11.390625 92.96875 Z M 11.390625 92.96875 "/></g><g clip-rule="nonzero" clip-path="url(#b5ef3c63da)"><path style=" stroke:none;fill-rule:nonzero;fill:#000000;fill-opacity:1;" d="M 11.378906 99.875 C 11.605469 99.867188 11.824219 99.816406 12.03125 99.722656 C 12.242188 99.628906 12.421875 99.5 12.582031 99.332031 C 12.738281 99.167969 12.855469 98.976562 12.9375 98.761719 C 13.019531 98.546875 13.058594 98.328125 13.054688 98.097656 C 13.050781 97.867188 13 97.648438 12.910156 97.4375 C 12.816406 97.226562 12.6875 97.042969 12.519531 96.886719 C 12.351562 96.726562 12.160156 96.609375 11.945312 96.527344 C 11.730469 96.445312 11.511719 96.410156 11.28125 96.421875 C 11.050781 96.425781 10.832031 96.476562 10.625 96.570312 C 10.414062 96.664062 10.230469 96.792969 10.074219 96.960938 C 9.917969 97.125 9.796875 97.316406 9.714844 97.53125 C 9.632812 97.746094 9.59375 97.964844 9.601562 98.195312 C 9.609375 98.425781 9.660156 98.644531 9.753906 98.851562 C 9.84375 99.0625 9.976562 99.246094 10.140625 99.402344 C 10.308594 99.558594 10.5 99.679688 10.710938 99.761719 C 10.925781 99.84375 11.148438 99.878906 11.378906 99.875 Z M 11.378906 99.875 "/></g><path style=" stroke:none;fill-rule:nonzero;fill:#000000;fill-opacity:1;" d="M 73.976562 36.203125 C 73.976562 36.699219 74.023438 37.1875 74.121094 37.671875 C 74.214844 38.160156 74.359375 38.628906 74.546875 39.085938 C 74.738281 39.542969 74.96875 39.976562 75.242188 40.390625 C 75.519531 40.800781 75.832031 41.179688 76.179688 41.53125 C 76.527344 41.882812 76.910156 42.195312 77.320312 42.46875 C 77.730469 42.742188 78.164062 42.976562 78.621094 43.164062 C 79.078125 43.355469 79.546875 43.496094 80.03125 43.59375 C 80.515625 43.691406 81.007812 43.738281 81.5 43.738281 C 81.996094 43.738281 82.484375 43.691406 82.96875 43.59375 C 83.453125 43.496094 83.921875 43.351562 84.378906 43.164062 C 84.835938 42.976562 85.269531 42.742188 85.679688 42.46875 C 86.089844 42.191406 86.472656 41.878906 86.820312 41.53125 C 87.167969 41.179688 87.480469 40.800781 87.757812 40.386719 C 88.03125 39.976562 88.261719 39.542969 88.453125 39.085938 C 88.640625 38.628906 88.78125 38.15625 88.878906 37.671875 C 88.976562 37.1875 89.023438 36.695312 89.023438 36.203125 C 89.023438 35.707031 88.976562 35.21875 88.878906 34.730469 C 88.78125 34.246094 88.640625 33.777344 88.449219 33.320312 C 88.261719 32.863281 88.03125 32.425781 87.753906 32.015625 C 87.480469 31.605469 87.167969 31.222656 86.820312 30.875 C 86.46875 30.523438 86.089844 30.210938 85.679688 29.9375 C 85.269531 29.664062 84.835938 29.429688 84.378906 29.242188 C 83.921875 29.050781 83.449219 28.910156 82.964844 28.8125 C 82.480469 28.714844 81.992188 28.667969 81.5 28.667969 C 81.003906 28.667969 80.515625 28.71875 80.03125 28.816406 C 79.546875 28.910156 79.078125 29.054688 78.621094 29.246094 C 78.164062 29.433594 77.730469 29.667969 77.320312 29.941406 C 76.910156 30.214844 76.53125 30.527344 76.179688 30.878906 C 75.832031 31.226562 75.519531 31.609375 75.246094 32.019531 C 74.972656 32.429688 74.738281 32.863281 74.550781 33.320312 C 74.359375 33.777344 74.21875 34.25 74.121094 34.734375 C 74.023438 35.21875 73.976562 35.707031 73.976562 36.203125 Z M 85.574219 36.203125 C 85.574219 36.472656 85.546875 36.738281 85.496094 37 C 85.445312 37.261719 85.367188 37.519531 85.265625 37.765625 C 85.164062 38.011719 85.035156 38.25 84.886719 38.472656 C 84.738281 38.695312 84.570312 38.898438 84.382812 39.089844 C 84.191406 39.277344 83.984375 39.449219 83.761719 39.597656 C 83.539062 39.746094 83.304688 39.871094 83.058594 39.972656 C 82.8125 40.078125 82.554688 40.152344 82.292969 40.207031 C 82.03125 40.257812 81.765625 40.285156 81.5 40.285156 C 81.230469 40.285156 80.964844 40.257812 80.703125 40.207031 C 80.441406 40.152344 80.1875 40.078125 79.9375 39.972656 C 79.691406 39.871094 79.457031 39.746094 79.234375 39.597656 C 79.011719 39.449219 78.804688 39.277344 78.617188 39.089844 C 78.425781 38.898438 78.257812 38.695312 78.109375 38.46875 C 77.960938 38.246094 77.835938 38.011719 77.734375 37.765625 C 77.632812 37.515625 77.554688 37.261719 77.5 37 C 77.449219 36.734375 77.421875 36.472656 77.421875 36.203125 C 77.421875 35.933594 77.449219 35.667969 77.5 35.40625 C 77.554688 35.144531 77.632812 34.886719 77.734375 34.640625 C 77.835938 34.394531 77.960938 34.15625 78.109375 33.933594 C 78.257812 33.710938 78.429688 33.507812 78.617188 33.316406 C 78.804688 33.128906 79.011719 32.957031 79.234375 32.808594 C 79.457031 32.660156 79.691406 32.535156 79.941406 32.433594 C 80.1875 32.328125 80.441406 32.253906 80.703125 32.199219 C 80.96875 32.148438 81.230469 32.121094 81.5 32.121094 C 81.765625 32.121094 82.03125 32.148438 82.292969 32.199219 C 82.558594 32.253906 82.8125 32.332031 83.058594 32.433594 C 83.304688 32.535156 83.539062 32.664062 83.761719 32.8125 C 83.984375 32.960938 84.191406 33.128906 84.378906 33.320312 C 84.570312 33.507812 84.738281 33.714844 84.886719 33.9375 C 85.035156 34.160156 85.160156 34.394531 85.261719 34.640625 C 85.367188 34.890625 85.445312 35.144531 85.496094 35.40625 C 85.546875 35.671875 85.574219 35.933594 85.574219 36.203125 Z M 85.574219 36.203125 "/><path style=" stroke:none;fill-rule:nonzero;fill:#000000;fill-opacity:1;" d="M 119.195312 154.800781 C 119.195312 154.304688 119.144531 153.816406 119.050781 153.328125 C 118.953125 152.84375 118.8125 152.375 118.621094 151.914062 C 118.433594 151.457031 118.199219 151.023438 117.925781 150.613281 C 117.652344 150.203125 117.339844 149.820312 116.992188 149.472656 C 116.640625 149.121094 116.261719 148.808594 115.851562 148.535156 C 115.441406 148.257812 115.007812 148.027344 114.550781 147.839844 C 114.09375 147.648438 113.621094 147.503906 113.136719 147.410156 C 112.652344 147.3125 112.164062 147.265625 111.671875 147.265625 C 111.175781 147.265625 110.6875 147.3125 110.203125 147.410156 C 109.71875 147.503906 109.246094 147.648438 108.789062 147.835938 C 108.335938 148.027344 107.902344 148.257812 107.488281 148.535156 C 107.078125 148.808594 106.699219 149.121094 106.351562 149.472656 C 106 149.820312 105.6875 150.199219 105.414062 150.613281 C 105.140625 151.023438 104.90625 151.457031 104.71875 151.914062 C 104.53125 152.371094 104.386719 152.84375 104.289062 153.328125 C 104.195312 153.8125 104.144531 154.304688 104.144531 154.796875 C 104.144531 155.292969 104.195312 155.785156 104.289062 156.269531 C 104.386719 156.753906 104.53125 157.226562 104.71875 157.683594 C 104.90625 158.140625 105.140625 158.574219 105.414062 158.984375 C 105.6875 159.394531 106 159.777344 106.347656 160.125 C 106.699219 160.476562 107.078125 160.789062 107.488281 161.0625 C 107.902344 161.339844 108.335938 161.570312 108.789062 161.757812 C 109.246094 161.949219 109.71875 162.09375 110.203125 162.1875 C 110.6875 162.285156 111.175781 162.332031 111.671875 162.332031 C 112.164062 162.332031 112.652344 162.285156 113.136719 162.1875 C 113.621094 162.089844 114.089844 161.945312 114.546875 161.757812 C 115.003906 161.566406 115.4375 161.335938 115.847656 161.0625 C 116.257812 160.785156 116.636719 160.472656 116.988281 160.125 C 117.335938 159.773438 117.648438 159.394531 117.921875 158.984375 C 118.199219 158.570312 118.429688 158.136719 118.617188 157.679688 C 118.808594 157.222656 118.953125 156.753906 119.046875 156.269531 C 119.144531 155.785156 119.195312 155.292969 119.195312 154.800781 Z M 107.59375 154.800781 C 107.59375 154.53125 107.621094 154.265625 107.671875 154.003906 C 107.722656 153.742188 107.800781 153.484375 107.902344 153.238281 C 108.007812 152.988281 108.132812 152.753906 108.28125 152.53125 C 108.429688 152.308594 108.597656 152.101562 108.789062 151.914062 C 108.976562 151.722656 109.183594 151.554688 109.40625 151.40625 C 109.628906 151.257812 109.863281 151.128906 110.109375 151.027344 C 110.355469 150.925781 110.613281 150.847656 110.875 150.796875 C 111.136719 150.742188 111.402344 150.71875 111.667969 150.71875 C 111.9375 150.71875 112.203125 150.742188 112.464844 150.796875 C 112.726562 150.847656 112.980469 150.925781 113.230469 151.027344 C 113.476562 151.128906 113.710938 151.257812 113.933594 151.40625 C 114.15625 151.554688 114.363281 151.722656 114.550781 151.914062 C 114.742188 152.101562 114.910156 152.308594 115.058594 152.53125 C 115.207031 152.753906 115.332031 152.988281 115.433594 153.238281 C 115.539062 153.484375 115.617188 153.738281 115.667969 154.003906 C 115.71875 154.265625 115.746094 154.53125 115.746094 154.796875 C 115.746094 155.066406 115.71875 155.332031 115.667969 155.59375 C 115.617188 155.859375 115.539062 156.113281 115.4375 156.359375 C 115.332031 156.609375 115.207031 156.84375 115.058594 157.066406 C 114.910156 157.289062 114.742188 157.496094 114.550781 157.683594 C 114.363281 157.875 114.15625 158.042969 113.933594 158.191406 C 113.710938 158.339844 113.476562 158.46875 113.230469 158.570312 C 112.984375 158.671875 112.726562 158.75 112.464844 158.800781 C 112.203125 158.855469 111.9375 158.878906 111.671875 158.878906 C 111.402344 158.878906 111.136719 158.855469 110.875 158.800781 C 110.613281 158.75 110.359375 158.671875 110.109375 158.570312 C 109.863281 158.464844 109.628906 158.339844 109.40625 158.191406 C 109.183594 158.042969 108.980469 157.875 108.789062 157.683594 C 108.601562 157.496094 108.429688 157.289062 108.28125 157.066406 C 108.132812 156.84375 108.007812 156.609375 107.90625 156.359375 C 107.804688 156.113281 107.726562 155.859375 107.671875 155.59375 C 107.621094 155.332031 107.59375 155.066406 107.59375 154.800781 Z M 107.59375 154.800781 "/></g></svg>