<svg xmlns="http://www.w3.org/2000/svg" xmlns:xlink="http://www.w3.org/1999/xlink" width="260" zoomAndPan="magnify" viewBox="0 0 194.87999 193.499995" height="258" preserveAspectRatio="xMidYMid meet" version="1.2"><defs><clipPath id="57d36538cb"><path d="M 20.621094 122 L 168 122 L 168 187.371094 L 20.621094 187.371094 Z M 20.621094 122 "/></clipPath><clipPath id="b33f2f79fd"><path d="M 53 5.589844 L 173.972656 5.589844 L 173.972656 155 L 53 155 Z M 53 5.589844 "/></clipPath></defs><g id="573390e298"><g clip-rule="nonzero" clip-path="url(#57d36538cb)"><path style=" stroke:none;fill-rule:nonzero;fill:#bcbbbb;fill-opacity:1;" d="M 151.097656 163.0625 L 151.097656 130.152344 C 151.097656 129.621094 151.148438 129.097656 151.253906 128.574219 C 151.359375 128.054688 151.511719 127.550781 151.714844 127.058594 C 151.917969 126.566406 152.167969 126.101562 152.460938 125.660156 C 152.757812 125.21875 153.089844 124.808594 153.464844 124.433594 C 153.839844 124.058594 154.25 123.722656 154.691406 123.429688 C 155.128906 123.132812 155.597656 122.882812 156.085938 122.679688 C 156.574219 122.476562 157.082031 122.324219 157.601562 122.21875 C 158.121094 122.113281 158.644531 122.0625 159.175781 122.0625 L 159.300781 122.0625 C 159.832031 122.0625 160.355469 122.113281 160.875 122.21875 C 161.398438 122.324219 161.902344 122.476562 162.390625 122.679688 C 162.882812 122.882812 163.347656 123.132812 163.789062 123.429688 C 164.226562 123.722656 164.636719 124.058594 165.011719 124.433594 C 165.386719 124.808594 165.71875 125.21875 166.015625 125.660156 C 166.308594 126.101562 166.558594 126.566406 166.761719 127.058594 C 166.964844 127.550781 167.121094 128.054688 167.222656 128.574219 C 167.328125 129.097656 167.378906 129.621094 167.378906 130.152344 L 167.378906 179.28125 C 167.378906 179.8125 167.328125 180.335938 167.222656 180.859375 C 167.121094 181.378906 166.964844 181.882812 166.761719 182.375 C 166.558594 182.867188 166.308594 183.332031 166.015625 183.773438 C 165.71875 184.214844 165.386719 184.621094 165.011719 185 C 164.636719 185.375 164.226562 185.710938 163.789062 186.003906 C 163.347656 186.300781 162.882812 186.550781 162.390625 186.753906 C 161.902344 186.957031 161.398438 187.109375 160.875 187.214844 C 160.355469 187.320312 159.832031 187.371094 159.300781 187.371094 L 28.699219 187.371094 C 28.167969 187.371094 27.644531 187.320312 27.125 187.214844 C 26.601562 187.113281 26.097656 186.960938 25.609375 186.757812 C 25.117188 186.550781 24.652344 186.304688 24.210938 186.007812 C 23.769531 185.714844 23.363281 185.378906 22.988281 185 C 22.613281 184.625 22.277344 184.21875 21.980469 183.777344 C 21.6875 183.332031 21.4375 182.867188 21.234375 182.375 C 21.03125 181.886719 20.878906 181.378906 20.777344 180.859375 C 20.671875 180.335938 20.621094 179.8125 20.621094 179.28125 L 20.621094 130.152344 C 20.621094 129.621094 20.671875 129.097656 20.777344 128.574219 C 20.878906 128.054688 21.03125 127.546875 21.234375 127.058594 C 21.4375 126.566406 21.6875 126.101562 21.980469 125.65625 C 22.277344 125.214844 22.613281 124.808594 22.988281 124.429688 C 23.363281 124.054688 23.769531 123.71875 24.210938 123.425781 C 24.652344 123.128906 25.117188 122.878906 25.609375 122.675781 C 26.097656 122.472656 26.601562 122.320312 27.125 122.21875 C 27.644531 122.113281 28.167969 122.0625 28.699219 122.0625 L 28.8125 122.0625 C 29.34375 122.0625 29.871094 122.113281 30.390625 122.21875 C 30.910156 122.320312 31.414062 122.472656 31.90625 122.675781 C 32.394531 122.878906 32.859375 123.128906 33.300781 123.425781 C 33.742188 123.71875 34.152344 124.054688 34.527344 124.429688 C 34.902344 124.808594 35.238281 125.214844 35.53125 125.65625 C 35.824219 126.101562 36.074219 126.566406 36.277344 127.058594 C 36.480469 127.546875 36.632812 128.054688 36.738281 128.574219 C 36.839844 129.097656 36.894531 129.621094 36.894531 130.152344 L 36.894531 163.050781 C 36.894531 163.582031 36.945312 164.105469 37.046875 164.628906 C 37.152344 165.148438 37.304688 165.65625 37.507812 166.144531 C 37.710938 166.636719 37.960938 167.101562 38.253906 167.546875 C 38.550781 167.988281 38.882812 168.394531 39.257812 168.773438 C 39.632812 169.148438 40.042969 169.484375 40.484375 169.777344 C 40.925781 170.074219 41.390625 170.324219 41.878906 170.527344 C 42.371094 170.730469 42.875 170.882812 43.394531 170.984375 C 43.914062 171.089844 44.441406 171.140625 44.972656 171.140625 L 143.015625 171.140625 C 143.546875 171.140625 144.074219 171.089844 144.59375 170.988281 C 145.113281 170.886719 145.617188 170.734375 146.109375 170.53125 C 146.597656 170.328125 147.0625 170.078125 147.503906 169.785156 C 147.945312 169.488281 148.355469 169.152344 148.730469 168.777344 C 149.105469 168.402344 149.441406 167.996094 149.734375 167.554688 C 150.03125 167.113281 150.277344 166.644531 150.480469 166.15625 C 150.683594 165.664062 150.835938 165.160156 150.941406 164.640625 C 151.042969 164.117188 151.097656 163.59375 151.097656 163.0625 Z M 151.097656 163.0625 "/></g><g clip-rule="nonzero" clip-path="url(#b33f2f79fd)"><path style=" stroke:none;fill-rule:nonzero;fill:#f48023;fill-opacity:1;" d="M 58.433594 118.191406 L 131.074219 133.394531 C 131.550781 133.492188 132.027344 133.496094 132.503906 133.40625 C 132.980469 133.316406 133.421875 133.140625 133.828125 132.875 C 134.234375 132.605469 134.574219 132.273438 134.847656 131.871094 C 135.121094 131.46875 135.308594 131.03125 135.40625 130.554688 L 137.257812 121.671875 C 137.359375 121.195312 137.363281 120.71875 137.273438 120.238281 C 137.183594 119.761719 137.003906 119.316406 136.738281 118.910156 C 136.472656 118.503906 136.140625 118.160156 135.738281 117.886719 C 135.339844 117.609375 134.898438 117.421875 134.425781 117.324219 L 61.792969 102.121094 C 61.316406 102.023438 60.839844 102.019531 60.363281 102.109375 C 59.886719 102.203125 59.445312 102.378906 59.039062 102.644531 C 58.628906 102.910156 58.289062 103.246094 58.015625 103.644531 C 57.738281 104.046875 57.550781 104.484375 57.449219 104.960938 L 55.597656 113.84375 C 55.5 114.320312 55.496094 114.796875 55.585938 115.273438 C 55.679688 115.753906 55.855469 116.195312 56.121094 116.601562 C 56.386719 117.011719 56.71875 117.351562 57.121094 117.628906 C 57.519531 117.902344 57.957031 118.089844 58.433594 118.191406 Z M 65.390625 79.277344 L 135.945312 112.242188 C 136.386719 112.449219 136.851562 112.5625 137.339844 112.582031 C 137.828125 112.605469 138.300781 112.53125 138.757812 112.363281 C 139.214844 112.191406 139.625 111.941406 139.984375 111.609375 C 140.339844 111.277344 140.621094 110.890625 140.824219 110.445312 L 144.558594 102.25 C 144.761719 101.808594 144.871094 101.347656 144.886719 100.863281 C 144.90625 100.378906 144.832031 99.910156 144.664062 99.453125 C 144.5 99 144.25 98.59375 143.925781 98.238281 C 143.597656 97.882812 143.214844 97.601562 142.777344 97.394531 L 75.527344 65.894531 C 75.085938 65.6875 74.617188 65.574219 74.128906 65.554688 C 73.640625 65.535156 73.164062 65.609375 72.707031 65.777344 C 72.246094 65.949219 71.835938 66.199219 71.480469 66.535156 C 71.121094 66.867188 70.839844 67.257812 70.636719 67.703125 Z M 88.703125 45.246094 L 145.78125 92.875 C 146.15625 93.183594 146.574219 93.414062 147.039062 93.554688 C 147.503906 93.699219 147.976562 93.75 148.460938 93.703125 C 148.941406 93.660156 149.398438 93.523438 149.828125 93.296875 C 150.257812 93.070312 150.628906 92.769531 150.9375 92.394531 L 156.648438 85.527344 C 156.964844 85.152344 157.191406 84.734375 157.335938 84.269531 C 157.484375 83.800781 157.535156 83.328125 157.488281 82.839844 C 157.445312 82.355469 157.3125 81.898438 157.085938 81.464844 C 156.855469 81.035156 156.554688 80.664062 156.183594 80.351562 L 99.046875 32.773438 C 98.671875 32.460938 98.25 32.234375 97.785156 32.09375 C 97.320312 31.949219 96.847656 31.898438 96.363281 31.945312 C 95.878906 31.992188 95.421875 32.125 94.992188 32.351562 C 94.5625 32.578125 94.191406 32.878906 93.878906 33.253906 L 88.257812 40.121094 C 87.945312 40.492188 87.714844 40.910156 87.570312 41.371094 C 87.421875 41.835938 87.371094 42.308594 87.414062 42.792969 C 87.453125 43.277344 87.585938 43.734375 87.8125 44.167969 C 88.035156 44.597656 88.332031 44.96875 88.703125 45.28125 Z M 123.5 6.410156 L 116.289062 11.78125 C 115.898438 12.070312 115.582031 12.421875 115.332031 12.839844 C 115.082031 13.257812 114.921875 13.703125 114.847656 14.183594 C 114.777344 14.664062 114.800781 15.140625 114.917969 15.613281 C 115.035156 16.085938 115.234375 16.515625 115.523438 16.90625 L 159.691406 76.5625 C 159.980469 76.953125 160.335938 77.273438 160.75 77.523438 C 161.167969 77.773438 161.617188 77.933594 162.097656 78.003906 C 162.582031 78.078125 163.054688 78.050781 163.527344 77.933594 C 164 77.8125 164.429688 77.609375 164.820312 77.320312 L 172.03125 71.949219 C 172.417969 71.660156 172.738281 71.304688 172.988281 70.890625 C 173.234375 70.472656 173.394531 70.023438 173.464844 69.542969 C 173.535156 69.0625 173.511719 68.585938 173.394531 68.117188 C 173.277344 67.644531 173.074219 67.214844 172.785156 66.824219 L 128.640625 7.203125 C 128.351562 6.808594 128 6.484375 127.582031 6.234375 C 127.160156 5.980469 126.710938 5.820312 126.226562 5.75 C 125.746094 5.679688 125.265625 5.703125 124.792969 5.824219 C 124.320312 5.945312 123.890625 6.152344 123.5 6.445312 Z M 56.84375 154.613281 L 130.996094 154.613281 C 131.480469 154.613281 131.949219 154.519531 132.398438 154.335938 C 132.847656 154.148438 133.246094 153.882812 133.589844 153.539062 C 133.933594 153.191406 134.199219 152.796875 134.386719 152.34375 C 134.570312 151.894531 134.664062 151.425781 134.664062 150.941406 L 134.664062 142.046875 C 134.664062 141.558594 134.570312 141.09375 134.382812 140.644531 C 134.195312 140.195312 133.929688 139.796875 133.585938 139.457031 C 133.242188 139.113281 132.847656 138.847656 132.398438 138.660156 C 131.949219 138.476562 131.480469 138.382812 130.996094 138.382812 L 56.84375 138.382812 C 56.359375 138.382812 55.890625 138.476562 55.445312 138.660156 C 54.996094 138.847656 54.597656 139.113281 54.253906 139.457031 C 53.910156 139.796875 53.644531 140.195312 53.457031 140.644531 C 53.273438 141.09375 53.179688 141.558594 53.175781 142.046875 L 53.175781 150.941406 C 53.175781 151.425781 53.269531 151.894531 53.457031 152.34375 C 53.640625 152.796875 53.90625 153.191406 54.25 153.539062 C 54.59375 153.882812 54.992188 154.148438 55.441406 154.335938 C 55.890625 154.519531 56.359375 154.613281 56.84375 154.613281 Z M 56.84375 154.613281 "/></g></g></svg>