<svg xmlns="http://www.w3.org/2000/svg" xmlns:xlink="http://www.w3.org/1999/xlink" width="260" zoomAndPan="magnify" viewBox="0 0 194.87999 193.499995" height="258" preserveAspectRatio="xMidYMid meet" version="1.2"><defs><clipPath id="8d17f5ff91"><path d="M 8.039062 7.101562 L 186.828125 7.101562 L 186.828125 185.886719 L 8.039062 185.886719 Z M 8.039062 7.101562 "/></clipPath></defs><g id="eb62c76036"><g clip-rule="nonzero" clip-path="url(#8d17f5ff91)"><path style=" stroke:none;fill-rule:nonzero;fill:#016ec5;fill-opacity:1;" d="M 142.117188 7.101562 L 142.117188 160.65625 L 8.039062 140.738281 L 142.117188 185.886719 L 186.8125 167.289062 L 186.8125 28.464844 L 186.828125 28.460938 L 186.8125 28.429688 L 186.8125 25.695312 Z M 95.199219 33.261719 L 54.128906 73.855469 L 29.40625 55.234375 L 19.214844 58.636719 L 44.371094 83.503906 L 19.214844 108.367188 L 29.40625 111.773438 L 54.128906 93.148438 L 95.191406 133.738281 L 119.789062 123.292969 L 119.789062 43.710938 Z M 95.191406 62.226562 L 95.191406 104.777344 L 66.941406 83.496094 Z M 95.191406 62.226562 "/></g></g></svg>