<svg xmlns="http://www.w3.org/2000/svg" width="500" zoomAndPan="magnify" viewBox="0 0 375 374.999991" height="500"
     preserveAspectRatio="xMidYMid meet" version="1.2"><defs/><g id="869fe2f4e2"><g style="fill:#64dbff;fill-opacity:1;"><g transform="translate(34.893343, 371.39789)"><path style="stroke:none" d="M 45.375 -55.6875 C 44 -72.875 42.96875 -92.125 42.28125 -113.4375 C 41.59375 -134.75 41.332031 -156.660156 41.5 -179.171875 C 41.675781 -201.691406 42.191406 -223.4375 43.046875 -244.40625 C 43.910156 -265.382812 45.113281 -284.125 46.65625 -300.625 C 48.207031 -317.125 50.015625 -329.84375 52.078125 -338.78125 C 52.765625 -340.84375 54.050781 -342.734375 55.9375 -344.453125 C 57.832031 -346.171875 59.984375 -347.03125 62.390625 -347.03125 C 66.515625 -347.03125 73.046875 -346.171875 81.984375 -344.453125 C 90.921875 -342.734375 100.03125 -340.671875 109.3125 -338.265625 C 118.59375 -335.859375 125.46875 -333.453125 129.9375 -331.046875 C 133.71875 -329.328125 136.125 -327.265625 137.15625 -324.859375 C 138.1875 -322.453125 138.703125 -319.875 138.703125 -317.125 C 138.703125 -316.09375 138.613281 -314.890625 138.4375 -313.515625 C 138.269531 -312.140625 138.1875 -311.453125 138.1875 -311.453125 C 135.78125 -292.546875 133.546875 -264.523438 131.484375 -227.390625 C 129.421875 -190.265625 128.5625 -147.984375 128.90625 -100.546875 C 128.90625 -100.546875 128.988281 -100.03125 129.15625 -99 C 129.332031 -97.96875 129.765625 -97.453125 130.453125 -97.453125 C 131.140625 -97.453125 131.738281 -97.878906 132.25 -98.734375 C 132.769531 -99.597656 133.03125 -100.03125 133.03125 -100.03125 C 139.5625 -120.65625 146.519531 -142.3125 153.90625 -165 C 161.300781 -187.6875 168.78125 -210.03125 176.34375 -232.03125 C 183.90625 -254.039062 191.035156 -274.328125 197.734375 -292.890625 C 204.441406 -311.453125 210.203125 -326.921875 215.015625 -339.296875 C 216.734375 -343.765625 219.828125 -346 224.296875 -346 C 227.046875 -346 231.769531 -344.796875 238.46875 -342.390625 C 245.175781 -339.984375 252.3125 -337.0625 259.875 -333.625 C 267.445312 -330.1875 274.410156 -326.75 280.765625 -323.3125 C 287.128906 -319.875 291.34375 -317.296875 293.40625 -315.578125 C 297.1875 -312.484375 299.078125 -309.046875 299.078125 -305.265625 C 299.078125 -304.234375 298.988281 -303.285156 298.8125 -302.421875 C 298.644531 -301.566406 298.5625 -301.140625 298.5625 -301.140625 C 294.78125 -290.484375 289.707031 -276.898438 283.34375 -260.390625 C 276.988281 -243.890625 269.941406 -225.753906 262.203125 -205.984375 C 254.460938 -186.222656 246.378906 -166.203125 237.953125 -145.921875 C 229.535156 -125.640625 221.457031 -106.300781 213.71875 -87.90625 C 205.988281 -69.519531 198.859375 -53.191406 192.328125 -38.921875 C 185.796875 -24.660156 180.46875 -13.75 176.34375 -6.1875 C 175.3125 -4.125 173.503906 -2.488281 170.921875 -1.28125 C 168.347656 -0.0820312 165.859375 0.515625 163.453125 0.515625 C 156.921875 0.515625 148.753906 -0.769531 138.953125 -3.34375 C 129.160156 -5.925781 118.847656 -9.363281 108.015625 -13.65625 C 97.191406 -17.957031 86.96875 -22.425781 77.34375 -27.0625 C 67.71875 -31.707031 59.984375 -36.09375 54.140625 -40.21875 C 49.328125 -43.65625 46.40625 -48.8125 45.375 -55.6875 Z M 45.375 -55.6875 "/></g></g><g style="fill:#080414;fill-opacity:1;"><g transform="translate(14.177768, 346.710039)"><path style="stroke:none" d="M 45.375 -55.6875 C 44 -72.875 42.96875 -92.125 42.28125 -113.4375 C 41.59375 -134.75 41.332031 -156.660156 41.5 -179.171875 C 41.675781 -201.691406 42.191406 -223.4375 43.046875 -244.40625 C 43.910156 -265.382812 45.113281 -284.125 46.65625 -300.625 C 48.207031 -317.125 50.015625 -329.84375 52.078125 -338.78125 C 52.765625 -340.84375 54.050781 -342.734375 55.9375 -344.453125 C 57.832031 -346.171875 59.984375 -347.03125 62.390625 -347.03125 C 66.515625 -347.03125 73.046875 -346.171875 81.984375 -344.453125 C 90.921875 -342.734375 100.03125 -340.671875 109.3125 -338.265625 C 118.59375 -335.859375 125.46875 -333.453125 129.9375 -331.046875 C 133.71875 -329.328125 136.125 -327.265625 137.15625 -324.859375 C 138.1875 -322.453125 138.703125 -319.875 138.703125 -317.125 C 138.703125 -316.09375 138.613281 -314.890625 138.4375 -313.515625 C 138.269531 -312.140625 138.1875 -311.453125 138.1875 -311.453125 C 135.78125 -292.546875 133.546875 -264.523438 131.484375 -227.390625 C 129.421875 -190.265625 128.5625 -147.984375 128.90625 -100.546875 C 128.90625 -100.546875 128.988281 -100.03125 129.15625 -99 C 129.332031 -97.96875 129.765625 -97.453125 130.453125 -97.453125 C 131.140625 -97.453125 131.738281 -97.878906 132.25 -98.734375 C 132.769531 -99.597656 133.03125 -100.03125 133.03125 -100.03125 C 139.5625 -120.65625 146.519531 -142.3125 153.90625 -165 C 161.300781 -187.6875 168.78125 -210.03125 176.34375 -232.03125 C 183.90625 -254.039062 191.035156 -274.328125 197.734375 -292.890625 C 204.441406 -311.453125 210.203125 -326.921875 215.015625 -339.296875 C 216.734375 -343.765625 219.828125 -346 224.296875 -346 C 227.046875 -346 231.769531 -344.796875 238.46875 -342.390625 C 245.175781 -339.984375 252.3125 -337.0625 259.875 -333.625 C 267.445312 -330.1875 274.410156 -326.75 280.765625 -323.3125 C 287.128906 -319.875 291.34375 -317.296875 293.40625 -315.578125 C 297.1875 -312.484375 299.078125 -309.046875 299.078125 -305.265625 C 299.078125 -304.234375 298.988281 -303.285156 298.8125 -302.421875 C 298.644531 -301.566406 298.5625 -301.140625 298.5625 -301.140625 C 294.78125 -290.484375 289.707031 -276.898438 283.34375 -260.390625 C 276.988281 -243.890625 269.941406 -225.753906 262.203125 -205.984375 C 254.460938 -186.222656 246.378906 -166.203125 237.953125 -145.921875 C 229.535156 -125.640625 221.457031 -106.300781 213.71875 -87.90625 C 205.988281 -69.519531 198.859375 -53.191406 192.328125 -38.921875 C 185.796875 -24.660156 180.46875 -13.75 176.34375 -6.1875 C 175.3125 -4.125 173.503906 -2.488281 170.921875 -1.28125 C 168.347656 -0.0820312 165.859375 0.515625 163.453125 0.515625 C 156.921875 0.515625 148.753906 -0.769531 138.953125 -3.34375 C 129.160156 -5.925781 118.847656 -9.363281 108.015625 -13.65625 C 97.191406 -17.957031 86.96875 -22.425781 77.34375 -27.0625 C 67.71875 -31.707031 59.984375 -36.09375 54.140625 -40.21875 C 49.328125 -43.65625 46.40625 -48.8125 45.375 -55.6875 Z M 45.375 -55.6875 "/></g></g></g></svg>