<svg xmlns="http://www.w3.org/2000/svg" xmlns:xlink="http://www.w3.org/1999/xlink" width="260" zoomAndPan="magnify" viewBox="0 0 194.87999 193.499995" height="258" preserveAspectRatio="xMidYMid meet" version="1.2"><defs><clipPath id="3e2c2a18e8"><path d="M 75 7.742188 L 138 7.742188 L 138 111 L 75 111 Z M 75 7.742188 "/></clipPath></defs><g id="0a62505071"><path style=" stroke:none;fill-rule:nonzero;fill:#4e7896;fill-opacity:1;" d="M 75.128906 143.539062 C 75.128906 143.539062 68.355469 147.644531 79.835938 148.816406 C 93.652344 150.574219 101.011719 150.28125 116.304688 147.351562 C 119.386719 149.234375 122.621094 150.796875 126.011719 152.046875 C 91.605469 166.710938 48.058594 151.167969 75.121094 143.539062 Z M 70.722656 124.472656 C 70.722656 124.472656 63.367188 130.046875 74.839844 131.226562 C 89.84375 132.691406 101.605469 132.980469 121.910156 128.882812 C 123.910156 130.90625 126.265625 132.371094 128.96875 133.277344 C 87.492188 145.59375 41.019531 134.453125 70.722656 124.480469 Z M 151.90625 157.902344 C 151.90625 157.902344 156.90625 162.007812 146.320312 165.234375 C 126.609375 171.109375 63.667969 172.863281 46.015625 165.234375 C 39.839844 162.601562 51.605469 158.785156 55.375 158.199219 C 59.203125 157.320312 61.265625 157.320312 61.265625 157.320312 C 54.496094 152.625 16.261719 166.996094 41.855469 171.097656 C 112.15625 182.535156 170.101562 166.113281 151.863281 157.902344 Z M 78.308594 104.527344 C 78.308594 104.527344 46.25 112.15625 66.835938 114.792969 C 75.660156 115.964844 93.011719 115.671875 109.191406 114.5 C 122.425781 113.328125 135.671875 110.988281 135.671875 110.988281 C 135.671875 110.988281 130.964844 113.039062 127.726562 115.09375 C 95.082031 123.601562 32.425781 119.785156 50.371094 110.988281 C 65.664062 103.65625 78.316406 104.539062 78.316406 104.539062 Z M 135.671875 136.496094 C 168.613281 119.480469 153.320312 103.066406 142.730469 105.113281 C 140.085938 105.703125 138.902344 106.289062 138.902344 106.289062 C 138.902344 106.289062 139.785156 104.53125 141.84375 103.945312 C 162.730469 96.613281 179.199219 125.941406 135.070312 137.375 C 135.070312 137.375 135.363281 137.082031 135.660156 136.496094 Z M 81.558594 182.832031 C 113.320312 184.886719 161.859375 181.65625 163.03125 166.695312 C 163.03125 166.695312 160.679688 172.566406 136.855469 176.960938 C 109.792969 181.941406 76.261719 181.351562 56.554688 178.132812 C 56.554688 178.132812 60.671875 181.648438 81.558594 182.828125 Z M 81.558594 182.832031 "/><g clip-rule="nonzero" clip-path="url(#3e2c2a18e8)"><path style=" stroke:none;fill-rule:nonzero;fill:#f58219;fill-opacity:1;" d="M 115.722656 7.746094 C 115.722656 7.746094 133.960938 26.222656 98.371094 54.085938 C 69.835938 76.664062 91.902344 89.570312 98.371094 104.238281 C 81.601562 89.277344 69.546875 76.078125 77.78125 63.765625 C 89.835938 45.578125 123.078125 36.832031 115.722656 7.746094 Z M 106.363281 91.917969 C 114.894531 101.597656 104.011719 110.394531 104.011719 110.394531 C 104.011719 110.394531 125.78125 99.253906 115.777344 85.464844 C 106.660156 72.269531 99.59375 65.8125 137.835938 43.820312 C 137.835938 43.820312 77.539062 58.777344 106.363281 91.917969 Z M 106.363281 91.917969 "/></g></g></svg>