<svg xmlns="http://www.w3.org/2000/svg" xmlns:xlink="http://www.w3.org/1999/xlink" width="260" zoomAndPan="magnify" viewBox="0 0 194.87999 193.499995" height="258" preserveAspectRatio="xMidYMid meet" version="1.2"><g id="d12da23f93"><path style=" stroke:none;fill-rule:nonzero;fill:#000000;fill-opacity:1;" d="M 64.9375 7.269531 C 63.808594 7.339844 62.8125 7.742188 61.957031 8.488281 C 61.355469 8.15625 60.71875 7.917969 60.046875 7.777344 C 59.375 7.636719 58.695312 7.601562 58.011719 7.664062 C 57.328125 7.730469 56.667969 7.894531 56.035156 8.160156 C 55.398438 8.421875 54.816406 8.777344 54.289062 9.214844 C 53.785156 9.046875 53.265625 8.953125 52.734375 8.941406 C 52.203125 8.929688 51.683594 8.996094 51.171875 9.144531 C 50.660156 9.292969 50.183594 9.511719 49.738281 9.804688 C 49.292969 10.097656 48.902344 10.449219 48.566406 10.859375 C 47.828125 10.703125 47.078125 10.644531 46.324219 10.675781 C 45.570312 10.707031 44.832031 10.832031 44.109375 11.050781 C 43.386719 11.269531 42.699219 11.574219 42.054688 11.964844 C 41.40625 12.355469 40.820312 12.820312 40.289062 13.355469 C 34.199219 12.628906 32.429688 16.828125 34.566406 20.785156 C 34.332031 21.035156 34.128906 21.308594 33.953125 21.597656 C 33.773438 21.890625 33.628906 22.195312 33.511719 22.515625 C 33.394531 22.835938 33.3125 23.164062 33.261719 23.5 C 33.210938 23.835938 33.191406 24.175781 33.210938 24.515625 C 33.226562 24.855469 33.277344 25.191406 33.363281 25.519531 C 33.445312 25.851562 33.5625 26.167969 33.707031 26.476562 C 33.855469 26.785156 34.03125 27.074219 34.238281 27.34375 C 34.445312 27.617188 34.671875 27.867188 34.929688 28.089844 C 34.726562 28.6875 34.617188 29.304688 34.605469 29.933594 C 34.589844 30.566406 34.675781 31.183594 34.855469 31.789062 C 35.035156 32.394531 35.300781 32.960938 35.65625 33.480469 C 36.011719 34.003906 36.441406 34.460938 36.9375 34.847656 C 36.820312 35.4375 36.796875 36.03125 36.871094 36.628906 C 36.941406 37.226562 37.101562 37.796875 37.351562 38.34375 C 37.605469 38.890625 37.933594 39.386719 38.339844 39.828125 C 38.746094 40.269531 39.210938 40.640625 39.734375 40.9375 C 39.777344 41.667969 39.914062 42.382812 40.148438 43.078125 C 40.382812 43.773438 40.707031 44.421875 41.121094 45.027344 C 41.535156 45.632812 42.019531 46.175781 42.582031 46.648438 C 43.140625 47.121094 43.757812 47.507812 44.421875 47.8125 C 44.539062 48.550781 44.777344 49.25 45.128906 49.910156 C 45.484375 50.570312 45.941406 51.148438 46.492188 51.652344 C 47.046875 52.15625 47.667969 52.554688 48.355469 52.847656 C 49.046875 53.136719 49.765625 53.308594 50.511719 53.355469 C 50.714844 54.007812 51.011719 54.617188 51.40625 55.179688 C 51.796875 55.738281 52.269531 56.226562 52.8125 56.640625 C 53.359375 57.054688 53.957031 57.378906 54.601562 57.605469 C 55.246094 57.835938 55.914062 57.957031 56.597656 57.980469 C 55.277344 58.59375 54.007812 59.304688 52.796875 60.113281 C 51.582031 60.925781 50.441406 61.820312 49.367188 62.808594 C 48.292969 63.796875 47.300781 64.859375 46.390625 65.996094 C 45.480469 67.136719 44.664062 68.339844 43.941406 69.605469 C 43.21875 70.871094 42.597656 72.183594 42.074219 73.546875 C 41.554688 74.910156 41.140625 76.304688 40.835938 77.730469 C 40.53125 79.15625 40.335938 80.59375 40.253906 82.050781 C 40.171875 83.507812 40.203125 84.960938 40.34375 86.410156 L 39.191406 88.480469 C 38.378906 89.03125 37.601562 89.625 36.855469 90.261719 C 36.109375 90.894531 35.402344 91.566406 34.726562 92.277344 C 34.050781 92.988281 33.417969 93.730469 32.824219 94.507812 C 32.230469 95.289062 31.679688 96.09375 31.167969 96.933594 C 30.660156 97.769531 30.199219 98.632812 29.785156 99.519531 C 29.367188 100.40625 29 101.3125 28.683594 102.238281 C 28.363281 103.164062 28.09375 104.101562 27.875 105.058594 C 27.660156 106.011719 27.492188 106.976562 27.375 107.949219 C 27.261719 108.921875 27.199219 109.894531 27.1875 110.875 C 27.175781 111.855469 27.21875 112.832031 27.3125 113.804688 C 27.40625 114.78125 27.550781 115.746094 27.75 116.707031 C 27.949219 117.664062 28.195312 118.613281 28.492188 119.542969 C 28.792969 120.476562 29.140625 121.390625 29.535156 122.285156 C 29.933594 123.179688 30.375 124.054688 30.867188 124.902344 C 31.355469 125.75 31.890625 126.570312 32.464844 127.359375 C 33.042969 128.148438 33.660156 128.90625 34.320312 129.632812 C 35.242188 133.796875 36.503906 137.851562 38.097656 141.804688 C 38.269531 143.140625 38.527344 144.460938 38.875 145.761719 C 39.222656 147.0625 39.652344 148.332031 40.167969 149.578125 C 40.683594 150.820312 41.277344 152.027344 41.953125 153.191406 C 42.628906 154.355469 43.378906 155.46875 44.203125 156.535156 C 45.023438 157.601562 45.914062 158.605469 46.871094 159.554688 C 47.828125 160.5 48.84375 161.382812 49.914062 162.195312 C 50.988281 163.007812 52.113281 163.746094 53.28125 164.410156 C 54.453125 165.074219 55.664062 165.65625 56.914062 166.160156 C 62.433594 170.589844 68.523438 173.996094 75.183594 176.386719 C 76.574219 177.941406 78.113281 179.335938 79.796875 180.566406 C 81.484375 181.796875 83.277344 182.839844 85.179688 183.691406 C 87.085938 184.546875 89.058594 185.195312 91.097656 185.636719 C 93.136719 186.078125 95.199219 186.300781 97.285156 186.308594 L 97.648438 186.308594 C 99.734375 186.300781 101.800781 186.078125 103.839844 185.636719 C 105.878906 185.195312 107.851562 184.546875 109.753906 183.691406 C 111.65625 182.839844 113.453125 181.796875 115.136719 180.566406 C 116.820312 179.335938 118.359375 177.941406 119.753906 176.386719 C 126.414062 173.996094 132.503906 170.589844 138.023438 166.160156 C 139.269531 165.65625 140.480469 165.074219 141.652344 164.410156 C 142.824219 163.746094 143.945312 163.007812 145.019531 162.195312 C 146.09375 161.382812 147.109375 160.5 148.0625 159.554688 C 149.019531 158.605469 149.910156 157.601562 150.734375 156.535156 C 151.558594 155.46875 152.304688 154.355469 152.980469 153.191406 C 153.65625 152.027344 154.25 150.820312 154.765625 149.578125 C 155.28125 148.332031 155.714844 147.0625 156.058594 145.761719 C 156.40625 144.460938 156.664062 143.140625 156.835938 141.804688 C 158.433594 137.851562 159.691406 133.796875 160.613281 129.632812 C 161.273438 128.90625 161.890625 128.148438 162.46875 127.359375 C 163.046875 126.570312 163.578125 125.75 164.070312 124.902344 C 164.558594 124.054688 165.003906 123.179688 165.398438 122.285156 C 165.796875 121.390625 166.144531 120.476562 166.441406 119.542969 C 166.738281 118.613281 166.988281 117.664062 167.183594 116.707031 C 167.382812 115.746094 167.527344 114.78125 167.621094 113.804688 C 167.714844 112.832031 167.757812 111.855469 167.746094 110.875 C 167.738281 109.894531 167.671875 108.921875 167.558594 107.949219 C 167.441406 106.976562 167.277344 106.011719 167.058594 105.058594 C 166.839844 104.101562 166.570312 103.164062 166.253906 102.238281 C 165.933594 101.3125 165.566406 100.40625 165.152344 99.519531 C 164.734375 98.632812 164.273438 97.769531 163.765625 96.933594 C 163.257812 96.09375 162.707031 95.289062 162.113281 94.507812 C 161.515625 93.730469 160.882812 92.988281 160.207031 92.277344 C 159.535156 91.566406 158.824219 90.894531 158.078125 90.261719 C 157.332031 89.625 156.554688 89.03125 155.746094 88.480469 L 153.800781 86.410156 C 153.921875 84.984375 153.9375 83.558594 153.847656 82.128906 C 153.753906 80.703125 153.554688 79.289062 153.25 77.890625 C 152.941406 76.496094 152.53125 75.128906 152.019531 73.792969 C 151.507812 72.457031 150.894531 71.167969 150.1875 69.921875 C 149.480469 68.679688 148.679688 67.496094 147.792969 66.375 C 146.90625 65.25 145.941406 64.203125 144.894531 63.226562 C 143.847656 62.25 142.734375 61.355469 141.554688 60.546875 C 140.371094 59.742188 139.136719 59.027344 137.847656 58.40625 C 138.53125 58.386719 139.199219 58.261719 139.84375 58.03125 C 140.488281 57.804688 141.085938 57.484375 141.632812 57.066406 C 142.175781 56.652344 142.648438 56.164062 143.039062 55.605469 C 143.433594 55.042969 143.730469 54.433594 143.933594 53.78125 C 144.679688 53.734375 145.398438 53.566406 146.089844 53.273438 C 146.777344 52.980469 147.398438 52.585938 147.953125 52.082031 C 148.503906 51.578125 148.960938 50.996094 149.316406 50.335938 C 149.667969 49.679688 149.90625 48.980469 150.023438 48.238281 C 150.6875 47.933594 151.304688 47.546875 151.863281 47.074219 C 152.425781 46.601562 152.910156 46.0625 153.324219 45.457031 C 153.738281 44.847656 154.0625 44.199219 154.296875 43.503906 C 154.53125 42.808594 154.671875 42.09375 154.710938 41.363281 C 155.234375 41.066406 155.699219 40.699219 156.105469 40.253906 C 156.511719 39.8125 156.839844 39.316406 157.09375 38.773438 C 157.34375 38.226562 157.503906 37.652344 157.578125 37.058594 C 157.648438 36.460938 157.625 35.867188 157.507812 35.277344 C 158.007812 34.886719 158.433594 34.429688 158.789062 33.910156 C 159.144531 33.386719 159.410156 32.824219 159.589844 32.21875 C 159.769531 31.613281 159.855469 30.992188 159.84375 30.363281 C 159.828125 29.730469 159.722656 29.117188 159.515625 28.519531 C 159.773438 28.292969 160.003906 28.042969 160.207031 27.773438 C 160.414062 27.5 160.589844 27.210938 160.738281 26.902344 C 160.882812 26.597656 161 26.277344 161.085938 25.949219 C 161.167969 25.617188 161.21875 25.28125 161.234375 24.941406 C 161.253906 24.601562 161.234375 24.265625 161.183594 23.925781 C 161.132812 23.589844 161.050781 23.261719 160.933594 22.941406 C 160.816406 22.621094 160.671875 22.316406 160.492188 22.023438 C 160.316406 21.734375 160.113281 21.464844 159.878906 21.214844 C 162.015625 17.316406 159.878906 13.121094 154.15625 13.785156 C 153.632812 13.183594 153.042969 12.660156 152.382812 12.214844 C 151.722656 11.769531 151.011719 11.421875 150.257812 11.164062 C 149.503906 10.90625 148.730469 10.753906 147.9375 10.699219 C 147.140625 10.648438 146.351562 10.703125 145.570312 10.859375 C 145.238281 10.453125 144.851562 10.105469 144.410156 9.816406 C 143.972656 9.53125 143.5 9.3125 142.996094 9.164062 C 142.488281 9.019531 141.976562 8.949219 141.449219 8.957031 C 140.921875 8.964844 140.410156 9.050781 139.910156 9.214844 C 139.382812 8.777344 138.800781 8.421875 138.167969 8.160156 C 137.53125 7.894531 136.875 7.730469 136.1875 7.664062 C 135.503906 7.601562 134.828125 7.636719 134.152344 7.777344 C 133.480469 7.917969 132.84375 8.15625 132.242188 8.488281 C 131.660156 8.097656 131.03125 7.808594 130.355469 7.617188 C 129.683594 7.429688 128.996094 7.347656 128.296875 7.375 C 127.59375 7.402344 126.917969 7.539062 126.257812 7.78125 C 125.601562 8.023438 124.996094 8.363281 124.449219 8.796875 C 123.886719 8.597656 123.308594 8.472656 122.71875 8.421875 C 122.125 8.371094 121.535156 8.398438 120.949219 8.496094 C 120.363281 8.597656 119.796875 8.773438 119.257812 9.019531 C 118.714844 9.265625 118.214844 9.574219 117.75 9.949219 C 117.023438 9.785156 116.285156 9.742188 115.542969 9.816406 C 114.800781 9.890625 114.085938 10.082031 113.40625 10.390625 C 112.726562 10.699219 112.109375 11.105469 111.5625 11.613281 C 111.015625 12.121094 110.5625 12.703125 110.203125 13.355469 L 107.824219 13.355469 C 105.171875 15.199219 102.925781 17.449219 101.082031 20.097656 C 99.234375 22.746094 97.910156 25.636719 97.105469 28.761719 C 96.722656 27.179688 96.203125 25.644531 95.546875 24.152344 C 94.886719 22.664062 94.101562 21.246094 93.183594 19.898438 C 92.269531 18.550781 91.238281 17.300781 90.097656 16.136719 C 88.953125 14.976562 87.71875 13.929688 86.382812 12.992188 L 84.003906 12.992188 C 83.621094 12.371094 83.148438 11.824219 82.585938 11.351562 C 82.027344 10.882812 81.40625 10.507812 80.730469 10.234375 C 80.050781 9.960938 79.34375 9.800781 78.617188 9.75 C 77.886719 9.703125 77.164062 9.769531 76.457031 9.949219 C 75.988281 9.5625 75.476562 9.246094 74.925781 8.992188 C 74.371094 8.742188 73.796875 8.5625 73.199219 8.460938 C 72.601562 8.359375 72 8.339844 71.394531 8.394531 C 70.789062 8.453125 70.203125 8.585938 69.632812 8.796875 C 68.15625 8.023438 66.59375 7.515625 64.945312 7.269531 Z M 64.9375 7.269531 "/><path style=" stroke:none;fill-rule:nonzero;fill:#75a928;fill-opacity:1;" d="M 52.21875 23.886719 C 64.230469 29.320312 74.984375 36.605469 84.488281 45.742188 C 81.808594 56.824219 67.253906 57.371094 61.957031 57.074219 C 63.011719 56.730469 63.78125 56.0625 64.273438 55.066406 C 61.117188 54.664062 58.015625 54.015625 54.960938 53.125 C 55.472656 53.101562 55.949219 52.960938 56.390625 52.699219 C 56.832031 52.441406 57.1875 52.09375 57.460938 51.660156 C 54.457031 50.988281 51.65625 49.832031 49.054688 48.191406 C 50.265625 48.378906 51.382812 48.136719 52.40625 47.464844 C 49.480469 46.191406 46.800781 44.527344 44.367188 42.46875 C 45.558594 42.621094 46.691406 42.441406 47.773438 41.921875 C 45.390625 40.46875 43.238281 38.722656 41.324219 36.6875 C 42.480469 37.011719 43.597656 36.90625 44.675781 36.382812 C 42.5 34.652344 40.652344 32.621094 39.132812 30.292969 C 39.734375 30.613281 40.371094 30.773438 41.050781 30.773438 C 41.730469 30.773438 42.367188 30.613281 42.96875 30.292969 C 41.039062 28.46875 39.355469 26.441406 37.917969 24.207031 C 39.113281 24.480469 40.308594 24.480469 41.507812 24.207031 C 40.851562 21.957031 39.777344 19.929688 38.28125 18.121094 C 41.019531 18.320312 43.761719 18.320312 46.5 18.121094 L 44.492188 15.6875 C 47.605469 15.117188 50.632812 15.425781 53.570312 16.601562 C 54.667969 15.75 53.570312 14.660156 52.167969 13.558594 C 54.78125 13.886719 57.320312 14.515625 59.78125 15.449219 C 60.9375 14.351562 58.929688 13.378906 57.960938 12.160156 C 60.855469 12.597656 63.515625 13.632812 65.9375 15.265625 C 67.339844 13.988281 65.9375 12.957031 65.148438 11.859375 C 67.683594 12.835938 69.914062 14.277344 71.84375 16.183594 C 72.101562 15.984375 72.308594 15.746094 72.464844 15.464844 C 72.625 15.179688 72.71875 14.878906 72.753906 14.558594 C 72.789062 14.234375 72.757812 13.921875 72.664062 13.613281 C 72.570312 13.300781 72.417969 13.023438 72.207031 12.777344 C 74.324219 13.9375 76.109375 15.480469 77.566406 17.402344 C 78.039062 16.996094 78.351562 16.492188 78.507812 15.890625 C 78.664062 15.289062 78.636719 14.695312 78.421875 14.113281 C 80.617188 15.976562 82.644531 18.007812 84.507812 20.199219 C 85.09375 19.398438 85.417969 18.507812 85.480469 17.519531 C 91.207031 23.0625 99.300781 37.058594 87.554688 42.601562 C 82.277344 38.433594 76.664062 34.78125 70.71875 31.640625 C 64.773438 28.5 58.59375 25.925781 52.175781 23.914062 Z M 142.324219 23.886719 C 130.3125 29.320312 119.558594 36.605469 110.054688 45.742188 C 112.855469 56.824219 127.289062 57.371094 132.585938 57.074219 C 131.621094 56.660156 130.929688 55.96875 130.515625 55.003906 C 133.667969 54.601562 136.773438 53.953125 139.828125 53.058594 C 139.328125 53.027344 138.863281 52.882812 138.433594 52.625 C 138.003906 52.367188 137.65625 52.023438 137.390625 51.597656 C 140.394531 50.925781 143.195312 49.769531 145.796875 48.128906 C 144.5625 48.332031 143.429688 48.089844 142.386719 47.402344 C 145.3125 46.128906 147.992188 44.464844 150.425781 42.40625 C 149.238281 42.558594 148.101562 42.378906 147.019531 41.859375 C 149.40625 40.40625 151.558594 38.660156 153.472656 36.625 C 152.316406 36.945312 151.199219 36.84375 150.121094 36.320312 C 152.292969 34.589844 154.140625 32.558594 155.660156 30.230469 C 155.0625 30.550781 154.421875 30.710938 153.746094 30.710938 C 153.066406 30.710938 152.425781 30.550781 151.828125 30.230469 C 153.757812 28.40625 155.441406 26.378906 156.878906 24.144531 C 155.683594 24.417969 154.484375 24.417969 153.289062 24.144531 C 153.945312 21.894531 155.019531 19.863281 156.515625 18.058594 C 153.773438 18.253906 151.035156 18.253906 148.292969 18.058594 L 150.363281 15.925781 C 147.25 15.355469 144.226562 15.664062 141.289062 16.839844 C 140.191406 15.988281 141.289062 14.894531 142.6875 13.796875 C 140.074219 14.125 137.539062 14.753906 135.078125 15.6875 C 133.675781 14.289062 135.621094 13.378906 136.65625 12.152344 C 133.765625 12.589844 131.105469 13.625 128.679688 15.261719 C 127.28125 13.980469 128.679688 12.953125 129.472656 11.851562 C 126.9375 12.828125 124.707031 14.269531 122.777344 16.175781 C 122.515625 15.984375 122.300781 15.746094 122.136719 15.46875 C 121.976562 15.1875 121.871094 14.886719 121.832031 14.566406 C 121.792969 14.242188 121.816406 13.925781 121.90625 13.613281 C 121.996094 13.300781 122.144531 13.019531 122.347656 12.769531 C 120.234375 13.929688 118.449219 15.472656 116.988281 17.394531 C 116.519531 16.988281 116.203125 16.484375 116.046875 15.882812 C 115.890625 15.28125 115.921875 14.6875 116.136719 14.105469 C 113.941406 15.96875 111.914062 18 110.046875 20.191406 C 109.464844 19.394531 109.140625 18.5 109.074219 17.511719 C 103.351562 23.054688 95.257812 37.054688 107.003906 42.59375 C 112.246094 38.441406 117.816406 34.792969 123.71875 31.652344 C 129.625 28.511719 135.761719 25.929688 142.136719 23.90625 Z M 142.324219 23.886719 "/><path style=" stroke:none;fill-rule:nonzero;fill:#bc1142;fill-opacity:1;" d="M 117.851562 136.9375 C 117.828125 137.578125 117.773438 138.214844 117.6875 138.847656 C 117.601562 139.480469 117.484375 140.109375 117.335938 140.734375 C 117.1875 141.355469 117.011719 141.96875 116.804688 142.574219 C 116.597656 143.179688 116.359375 143.773438 116.09375 144.355469 C 115.828125 144.941406 115.535156 145.507812 115.214844 146.0625 C 114.890625 146.613281 114.542969 147.152344 114.171875 147.671875 C 113.796875 148.191406 113.398438 148.691406 112.976562 149.171875 C 112.550781 149.652344 112.105469 150.109375 111.640625 150.546875 C 111.171875 150.984375 110.683594 151.394531 110.175781 151.785156 C 109.667969 152.175781 109.140625 152.539062 108.597656 152.875 C 108.050781 153.210938 107.492188 153.523438 106.917969 153.804688 C 106.34375 154.089844 105.757812 154.34375 105.160156 154.566406 C 104.558594 154.792969 103.953125 154.988281 103.332031 155.152344 C 102.714844 155.320312 102.089844 155.453125 101.457031 155.558594 C 100.828125 155.664062 100.191406 155.738281 99.554688 155.78125 C 98.914062 155.820312 98.273438 155.832031 97.636719 155.8125 C 96.996094 155.839844 96.355469 155.839844 95.714844 155.804688 C 95.074219 155.769531 94.433594 155.703125 93.800781 155.605469 C 93.167969 155.511719 92.539062 155.382812 91.917969 155.222656 C 91.292969 155.066406 90.683594 154.875 90.078125 154.660156 C 89.476562 154.441406 88.886719 154.191406 88.304688 153.914062 C 87.726562 153.636719 87.164062 153.335938 86.613281 153.003906 C 86.066406 152.671875 85.535156 152.3125 85.019531 151.929688 C 84.507812 151.542969 84.011719 151.136719 83.539062 150.703125 C 83.066406 150.269531 82.613281 149.816406 82.183594 149.335938 C 81.753906 148.859375 81.351562 148.363281 80.96875 147.847656 C 80.589844 147.332031 80.234375 146.796875 79.910156 146.246094 C 79.582031 145.695312 79.28125 145.128906 79.007812 144.546875 C 78.734375 143.964844 78.492188 143.371094 78.277344 142.769531 C 78.066406 142.164062 77.882812 141.550781 77.726562 140.925781 C 77.574219 140.304688 77.449219 139.675781 77.359375 139.039062 C 77.265625 138.40625 77.207031 137.765625 77.175781 137.125 C 77.199219 136.484375 77.253906 135.847656 77.339844 135.214844 C 77.425781 134.582031 77.542969 133.953125 77.691406 133.328125 C 77.835938 132.707031 78.015625 132.09375 78.222656 131.488281 C 78.429688 130.882812 78.667969 130.289062 78.933594 129.707031 C 79.199219 129.125 79.492188 128.554688 79.8125 128 C 80.132812 127.449219 80.480469 126.910156 80.855469 126.390625 C 81.230469 125.871094 81.628906 125.371094 82.050781 124.890625 C 82.472656 124.410156 82.917969 123.953125 83.386719 123.515625 C 83.855469 123.078125 84.34375 122.667969 84.851562 122.277344 C 85.359375 121.886719 85.886719 121.523438 86.429688 121.1875 C 86.972656 120.851562 87.53125 120.539062 88.105469 120.257812 C 88.679688 119.972656 89.269531 119.71875 89.867188 119.496094 C 90.464844 119.269531 91.074219 119.074219 91.691406 118.910156 C 92.3125 118.742188 92.9375 118.609375 93.566406 118.503906 C 94.199219 118.398438 94.835938 118.324219 95.472656 118.285156 C 96.113281 118.242188 96.75 118.230469 97.390625 118.25 C 98.03125 118.222656 98.671875 118.222656 99.3125 118.257812 C 99.953125 118.292969 100.589844 118.359375 101.226562 118.457031 C 101.859375 118.550781 102.488281 118.679688 103.109375 118.839844 C 103.730469 118.996094 104.34375 119.1875 104.945312 119.40625 C 105.550781 119.625 106.140625 119.871094 106.71875 120.148438 C 107.300781 120.425781 107.863281 120.730469 108.410156 121.058594 C 108.960938 121.394531 109.492188 121.75 110.007812 122.136719 C 110.519531 122.519531 111.015625 122.925781 111.488281 123.359375 C 111.960938 123.792969 112.414062 124.246094 112.84375 124.726562 C 113.269531 125.203125 113.675781 125.699219 114.054688 126.214844 C 114.4375 126.730469 114.789062 127.265625 115.117188 127.816406 C 115.445312 128.371094 115.746094 128.933594 116.019531 129.515625 C 116.289062 130.097656 116.535156 130.691406 116.746094 131.296875 C 116.960938 131.898438 117.144531 132.515625 117.300781 133.136719 C 117.453125 133.757812 117.574219 134.386719 117.667969 135.023438 C 117.757812 135.65625 117.820312 136.296875 117.851562 136.9375 Z M 85.699219 83.367188 C 86.207031 83.773438 86.699219 84.199219 87.167969 84.652344 C 87.632812 85.105469 88.078125 85.578125 88.503906 86.074219 C 88.925781 86.566406 89.320312 87.082031 89.691406 87.617188 C 90.066406 88.152344 90.410156 88.703125 90.726562 89.269531 C 91.046875 89.835938 91.335938 90.417969 91.597656 91.015625 C 91.859375 91.609375 92.089844 92.21875 92.292969 92.835938 C 92.496094 93.457031 92.667969 94.082031 92.808594 94.71875 C 92.949219 95.351562 93.0625 95.992188 93.140625 96.640625 C 93.21875 97.285156 93.265625 97.933594 93.28125 98.585938 C 93.296875 99.234375 93.28125 99.882812 93.234375 100.535156 C 93.183594 101.183594 93.105469 101.828125 92.996094 102.46875 C 92.882812 103.109375 92.742188 103.746094 92.570312 104.371094 C 92.398438 105 92.195312 105.617188 91.960938 106.226562 C 91.730469 106.832031 91.46875 107.429688 91.175781 108.011719 C 90.886719 108.59375 90.566406 109.160156 90.222656 109.710938 C 89.875 110.261719 89.503906 110.796875 89.105469 111.308594 C 88.789062 111.878906 88.441406 112.433594 88.070312 112.972656 C 87.695312 113.507812 87.296875 114.027344 86.875 114.523438 C 86.453125 115.023438 86.007812 115.5 85.539062 115.953125 C 85.070312 116.410156 84.578125 116.839844 84.066406 117.25 C 83.558594 117.65625 83.027344 118.039062 82.480469 118.394531 C 81.929688 118.75 81.367188 119.082031 80.789062 119.382812 C 80.207031 119.683594 79.613281 119.957031 79.007812 120.199219 C 78.402344 120.445312 77.785156 120.660156 77.15625 120.84375 C 76.53125 121.027344 75.894531 121.179688 75.253906 121.304688 C 74.613281 121.425781 73.964844 121.515625 73.3125 121.578125 C 72.664062 121.636719 72.011719 121.664062 71.355469 121.660156 C 70.703125 121.660156 70.050781 121.625 69.402344 121.558594 C 68.75 121.488281 68.105469 121.390625 67.464844 121.261719 C 66.824219 121.132812 66.191406 120.972656 65.566406 120.785156 C 64.941406 120.59375 64.324219 120.371094 63.722656 120.121094 C 63.117188 119.871094 62.527344 119.59375 61.949219 119.285156 C 61.441406 118.882812 60.953125 118.453125 60.484375 118 C 60.015625 117.550781 59.570312 117.074219 59.148438 116.582031 C 58.726562 116.085938 58.328125 115.570312 57.957031 115.035156 C 57.585938 114.503906 57.238281 113.953125 56.921875 113.382812 C 56.601562 112.816406 56.3125 112.234375 56.050781 111.636719 C 55.789062 111.042969 55.558594 110.433594 55.355469 109.816406 C 55.152344 109.199219 54.980469 108.570312 54.839844 107.9375 C 54.699219 107.300781 54.589844 106.660156 54.511719 106.015625 C 54.433594 105.367188 54.382812 104.71875 54.367188 104.070312 C 54.351562 103.417969 54.371094 102.769531 54.417969 102.121094 C 54.464844 101.46875 54.542969 100.824219 54.65625 100.183594 C 54.765625 99.542969 54.90625 98.90625 55.078125 98.28125 C 55.253906 97.652344 55.453125 97.035156 55.6875 96.425781 C 55.921875 95.820312 56.183594 95.226562 56.472656 94.644531 C 56.761719 94.058594 57.082031 93.492188 57.425781 92.941406 C 57.773438 92.390625 58.144531 91.859375 58.542969 91.34375 C 58.863281 90.773438 59.207031 90.21875 59.582031 89.683594 C 59.953125 89.144531 60.351562 88.628906 60.773438 88.128906 C 61.195312 87.628906 61.644531 87.152344 62.113281 86.699219 C 62.582031 86.242188 63.070312 85.8125 63.582031 85.402344 C 64.09375 84.996094 64.621094 84.613281 65.171875 84.257812 C 65.71875 83.902344 66.28125 83.574219 66.863281 83.269531 C 67.441406 82.96875 68.035156 82.695312 68.640625 82.453125 C 69.25 82.207031 69.863281 81.996094 70.492188 81.8125 C 71.121094 81.625 71.753906 81.472656 72.394531 81.351562 C 73.039062 81.226562 73.683594 81.136719 74.335938 81.078125 C 74.988281 81.015625 75.640625 80.988281 76.292969 80.992188 C 76.945312 80.996094 77.597656 81.03125 78.25 81.097656 C 78.898438 81.164062 79.542969 81.261719 80.183594 81.390625 C 80.824219 81.519531 81.457031 81.679688 82.082031 81.871094 C 82.710938 82.058594 83.324219 82.28125 83.925781 82.53125 C 84.53125 82.78125 85.121094 83.058594 85.699219 83.367188 Z M 108.472656 82.332031 C 107.964844 82.738281 107.476562 83.164062 107.007812 83.617188 C 106.539062 84.070312 106.09375 84.542969 105.671875 85.039062 C 105.25 85.53125 104.851562 86.046875 104.480469 86.582031 C 104.109375 87.117188 103.761719 87.667969 103.445312 88.234375 C 103.125 88.800781 102.835938 89.382812 102.574219 89.980469 C 102.3125 90.574219 102.082031 91.183594 101.878906 91.800781 C 101.675781 92.417969 101.503906 93.046875 101.363281 93.683594 C 101.222656 94.316406 101.113281 94.957031 101.035156 95.605469 C 100.953125 96.25 100.90625 96.898438 100.890625 97.550781 C 100.875 98.199219 100.890625 98.847656 100.941406 99.5 C 100.988281 100.148438 101.066406 100.792969 101.175781 101.433594 C 101.289062 102.074219 101.429688 102.710938 101.601562 103.335938 C 101.773438 103.964844 101.976562 104.582031 102.210938 105.191406 C 102.441406 105.796875 102.703125 106.394531 102.996094 106.976562 C 103.285156 107.558594 103.605469 108.125 103.949219 108.675781 C 104.296875 109.226562 104.667969 109.757812 105.066406 110.273438 C 105.386719 110.84375 105.730469 111.398438 106.105469 111.9375 C 106.476562 112.472656 106.875 112.992188 107.296875 113.488281 C 107.71875 113.988281 108.164062 114.464844 108.632812 114.917969 C 109.105469 115.375 109.59375 115.804688 110.105469 116.214844 C 110.617188 116.621094 111.144531 117.003906 111.691406 117.359375 C 112.242188 117.714844 112.804688 118.042969 113.386719 118.347656 C 113.964844 118.648438 114.558594 118.921875 115.164062 119.164062 C 115.769531 119.410156 116.386719 119.621094 117.015625 119.808594 C 117.640625 119.992188 118.277344 120.144531 118.917969 120.265625 C 119.5625 120.390625 120.207031 120.480469 120.859375 120.542969 C 121.507812 120.601562 122.160156 120.628906 122.816406 120.625 C 123.46875 120.621094 124.121094 120.585938 124.769531 120.519531 C 125.421875 120.453125 126.066406 120.355469 126.707031 120.226562 C 127.347656 120.097656 127.980469 119.9375 128.605469 119.746094 C 129.230469 119.558594 129.847656 119.335938 130.449219 119.085938 C 131.054688 118.835938 131.644531 118.558594 132.222656 118.25 C 132.730469 117.847656 133.222656 117.417969 133.6875 116.964844 C 134.15625 116.515625 134.601562 116.039062 135.023438 115.546875 C 135.445312 115.050781 135.84375 114.535156 136.214844 114 C 136.585938 113.464844 136.933594 112.914062 137.25 112.347656 C 137.570312 111.78125 137.859375 111.199219 138.121094 110.601562 C 138.382812 110.007812 138.613281 109.398438 138.816406 108.78125 C 139.019531 108.164062 139.191406 107.535156 139.332031 106.898438 C 139.472656 106.265625 139.582031 105.625 139.664062 104.976562 C 139.742188 104.332031 139.789062 103.683594 139.804688 103.035156 C 139.820312 102.382812 139.804688 101.734375 139.753906 101.085938 C 139.707031 100.433594 139.628906 99.789062 139.519531 99.148438 C 139.40625 98.507812 139.265625 97.871094 139.09375 97.246094 C 138.921875 96.617188 138.71875 96 138.484375 95.390625 C 138.253906 94.785156 137.992188 94.191406 137.699219 93.605469 C 137.410156 93.023438 137.089844 92.457031 136.746094 91.90625 C 136.398438 91.355469 136.027344 90.824219 135.628906 90.308594 C 135.308594 89.738281 134.964844 89.183594 134.59375 88.644531 C 134.21875 88.109375 133.820312 87.589844 133.398438 87.09375 C 132.976562 86.59375 132.53125 86.117188 132.0625 85.664062 C 131.589844 85.207031 131.101562 84.777344 130.589844 84.367188 C 130.078125 83.960938 129.550781 83.578125 129.003906 83.222656 C 128.453125 82.867188 127.890625 82.539062 127.308594 82.234375 C 126.730469 81.933594 126.136719 81.660156 125.53125 81.417969 C 124.925781 81.171875 124.308594 80.960938 123.679688 80.773438 C 123.054688 80.589844 122.417969 80.4375 121.777344 80.316406 C 121.132812 80.191406 120.488281 80.101562 119.835938 80.042969 C 119.1875 79.980469 118.535156 79.953125 117.878906 79.957031 C 117.226562 79.960938 116.574219 79.996094 115.925781 80.0625 C 115.273438 80.128906 114.628906 80.226562 113.988281 80.355469 C 113.347656 80.484375 112.714844 80.644531 112.089844 80.835938 C 111.464844 81.023438 110.847656 81.246094 110.246094 81.496094 C 109.640625 81.746094 109.050781 82.023438 108.472656 82.332031 Z M 43.578125 92.496094 C 52.707031 90.0625 46.621094 130.179688 39.253906 126.890625 C 38.652344 126.308594 38.085938 125.691406 37.554688 125.042969 C 37.023438 124.394531 36.53125 123.71875 36.078125 123.011719 C 35.628906 122.308594 35.21875 121.578125 34.851562 120.824219 C 34.480469 120.074219 34.160156 119.300781 33.882812 118.511719 C 33.601562 117.71875 33.371094 116.917969 33.1875 116.097656 C 33 115.28125 32.863281 114.457031 32.777344 113.625 C 32.6875 112.789062 32.644531 111.957031 32.652344 111.117188 C 32.660156 110.28125 32.71875 109.445312 32.820312 108.613281 C 32.925781 107.78125 33.078125 106.960938 33.277344 106.144531 C 33.476562 105.332031 33.726562 104.535156 34.015625 103.75 C 34.308594 102.964844 34.648438 102.199219 35.027344 101.453125 C 35.410156 100.707031 35.832031 99.984375 36.296875 99.289062 C 36.761719 98.589844 37.265625 97.921875 37.808594 97.285156 C 38.351562 96.644531 38.929688 96.039062 39.542969 95.46875 C 40.15625 94.898438 40.800781 94.363281 41.472656 93.867188 C 42.148438 93.371094 42.847656 92.914062 43.578125 92.496094 Z M 148.785156 91.890625 C 139.652344 89.453125 145.738281 129.570312 153.109375 126.28125 C 153.710938 125.699219 154.277344 125.082031 154.804688 124.433594 C 155.335938 123.785156 155.828125 123.109375 156.28125 122.40625 C 156.734375 121.699219 157.144531 120.96875 157.511719 120.21875 C 157.878906 119.464844 158.199219 118.691406 158.480469 117.902344 C 158.757812 117.113281 158.988281 116.308594 159.171875 115.492188 C 159.359375 114.671875 159.496094 113.847656 159.585938 113.015625 C 159.675781 112.183594 159.714844 111.347656 159.707031 110.507812 C 159.699219 109.671875 159.644531 108.835938 159.539062 108.003906 C 159.433594 107.175781 159.28125 106.351562 159.082031 105.539062 C 158.882812 104.722656 158.636719 103.925781 158.34375 103.140625 C 158.050781 102.355469 157.714844 101.589844 157.332031 100.84375 C 156.949219 100.097656 156.527344 99.375 156.0625 98.679688 C 155.597656 97.980469 155.09375 97.3125 154.550781 96.675781 C 154.007812 96.035156 153.429688 95.433594 152.816406 94.859375 C 152.207031 94.289062 151.5625 93.753906 150.886719 93.257812 C 150.210938 92.761719 149.511719 92.304688 148.785156 91.890625 Z M 117.855469 62.0625 C 133.566406 59.386719 146.65625 68.757812 146.109375 85.808594 C 145.621094 92.503906 112.257812 62.980469 117.855469 62.0625 Z M 74.363281 61.574219 C 58.65625 58.894531 45.5625 68.269531 46.109375 85.320312 C 46.601562 91.824219 80.144531 62.554688 74.363281 61.574219 Z M 96.964844 57.621094 C 87.589844 57.621094 78.773438 64.5625 78.773438 68.757812 C 78.773438 72.957031 86.203125 79.042969 96.964844 79.167969 C 107.726562 79.296875 115.15625 75.027344 115.15625 69.796875 C 115.15625 64.5625 104.871094 57.621094 96.585938 57.621094 Z M 97.574219 161.652344 C 105.730469 161.289062 116.6875 164.269531 116.746094 168.230469 C 116.800781 172.191406 106.824219 180.773438 97.011719 180.402344 C 87.203125 180.03125 76.980469 172.128906 77.105469 169.070312 C 77.105469 164.628906 89.28125 161.164062 97.566406 161.402344 Z M 67.367188 138.148438 C 73.453125 145.144531 75.761719 157.503906 70.957031 161.09375 C 66.148438 164.683594 55.183594 162.738281 47.269531 151.355469 C 41.976562 141.734375 42.652344 132.0625 46.417969 129.011719 C 52.015625 125.601562 60.726562 130.226562 67.421875 137.964844 Z M 126.617188 135.910156 C 120.53125 143.277344 116.820312 156.730469 121.382812 161.050781 C 125.769531 164.410156 137.582031 163.976562 146.292969 151.859375 C 146.925781 150.941406 147.488281 149.980469 147.980469 148.976562 C 148.472656 147.976562 148.890625 146.945312 149.234375 145.882812 C 149.578125 144.824219 149.84375 143.742188 150.03125 142.640625 C 150.21875 141.542969 150.324219 140.433594 150.351562 139.320312 C 150.378906 138.203125 150.324219 137.089844 150.191406 135.984375 C 150.054688 134.875 149.84375 133.785156 149.550781 132.707031 C 149.257812 131.628906 148.890625 130.578125 148.449219 129.554688 C 148.003906 128.53125 147.488281 127.546875 146.902344 126.597656 C 141.542969 122.453125 133.816406 127.75 126.625 135.902344 Z M 126.617188 135.910156 "/></g></svg>